<svg xmlns="http://www.w3.org/2000/svg" width="256" height="256"><path fill-opacity=".016" d="M0 128.004v128.004l128.25-.254 128.25-.254.254-127.75L257.008 0H0v128.004m.485.496c0 70.4.119 99.053.265 63.672.146-35.38.146-92.98 0-128C.604 29.153.485 58.1.485 128.5" fill="#1976D2" fill-rule="evenodd"/><path fill-opacity=".183" d="M106.686 1.82c-5.899 1.063-10.174 2.348-10.717 3.224-1.352 2.178-2.955 10.417-3.576 18.385-.673 8.643 1.472 20.419 4.958 27.222 2.086 4.069 26.349 30.217 27.064 29.166.118-.174.786-3.917 1.483-8.317 2.898-18.293 9.06-40.728 16.291-59.315 2.208-5.674 3.732-10.597 3.389-10.941-.344-.344-7.027-.752-14.852-.908-10.297-.205-16.936.205-24.04 1.484m57.331 10.482c-6.58 14.511-13.751 38.682-17.556 59.175-2.027 10.914-5.406 36.868-4.874 37.426.212.221 1.386-.904 2.609-2.5 4.749-6.198 16.669-17.92 24.329-23.926l8.025-6.291 4.261-11.843c4.526-12.579 10.777-36.18 11.347-42.843l.342-4-8.5-4.235c-4.675-2.329-10.448-4.901-12.828-5.716l-4.328-1.481-2.827 6.234M63.222 17.867C52.685 24.2 46.27 29.271 48.103 29.82c1.443.432 20.237 7.472 22.897 8.577 1.288.535 1.502-1.216 1.516-12.387.008-7.155-.257-13.01-.591-13.01-.333 0-4.25 2.19-8.703 4.867m144.512 27.712c-2.05 8.119-3.611 14.878-3.469 15.019.547.548 25.69-9.143 25.712-9.91.013-.447-4.148-5.1-9.247-10.341l-9.27-9.53-3.726 14.762M28.495 47.366c-7.063 9.702-12.559 18.612-16.136 26.164C7.442 83.909 7.211 85 9.933 85c4.353 0 30.422 5.283 42.506 8.614 23.002 6.34 42.409 14.658 58.345 25.006 4.557 2.959 8.494 5.38 8.75 5.38.256 0 .466-1.979.466-4.398 0-9.175-13.495-30.858-26.087-41.915-13.485-11.84-30.15-21.138-49.653-27.7-13.022-4.382-14.325-4.599-15.765-2.621M228.5 73.501c-21.1 7.343-41.027 18.697-54.054 30.799l-6.875 6.387 9.965 1.791c25.297 4.547 49.076 14.936 69.248 30.255 4.007 3.042 7.425 5.36 7.596 5.149.596-.731 2.623-22.418 2.606-27.882-.012-3.92-.295-5.069-.986-4-.723 1.118-.973.563-.985-2.185-.051-12.376-10.607-43.828-14.702-43.805-.997.006-6.313 1.576-11.813 3.491M1.491 108.321c-.335 2.298-.47 8.066-.3 12.817l.309 8.637 9.97-5.903c5.483-3.247 13.471-7.335 17.75-9.084 4.279-1.75 7.78-3.506 7.78-3.902 0-.826-5.635-2.113-18.5-4.225-17.979-2.95-16.312-3.113-17.009 1.66M63.5 125.014c-18.276 3.748-37.607 12.286-52.337 23.117-9.561 7.031-9.35 6.059-4.494 20.667 13.408 40.335 47.503 72.225 88.942 83.189 7.969 2.109 27.912 4.824 28.812 3.923.269-.268-.159-6.028-.95-12.8-2.515-21.533-4.473-53.458-4.473-72.946V151.29l-5.384-5.092c-9.524-9.007-33.754-23.335-39.088-23.114-1.115.047-6.078.915-11.028 1.93m88.735 6.241c-4.483 5.574-11.649 25.412-12.762 35.331-1.154 10.28 4.237 88.414 6.099 88.414.164 0 3.589-.684 7.613-1.521 39.681-8.248 73.163-34.503 90.397-70.885 2.43-5.129 4.418-10.006 4.418-10.838 0-.832-2.364-3.533-5.254-6.001-24.125-20.611-50.81-31.8-83.878-35.171-3.894-.397-5.941-.19-6.633.671" fill="#1976D2" fill-rule="evenodd"/><path fill-opacity=".146" d="M114.5.995c-3.85.475-9.564 1.402-12.698 2.06l-5.699 1.196-1.551 6.822c-1.998 8.783-1.987 23.439.022 31.283 2.209 8.623 5.206 13.267 13.086 20.28 3.762 3.348 8.853 8.615 11.312 11.704 2.845 3.573 4.705 5.17 5.111 4.389.351-.676 1.201-4.829 1.889-9.229 2.713-17.354 11.234-47.207 17.903-62.721 1.116-2.596 1.681-4.935 1.256-5.198-1.6-.989-23.909-1.416-30.631-.586m49.438 12.643C157.606 27.751 151.166 49.746 147.143 71c-2.218 11.719-5.466 36.011-4.891 36.585.204.204 2.086-1.878 4.182-4.627 4.503-5.905 15.542-16.301 23.608-22.233 5.47-4.023 5.918-4.692 9.36-13.995 7.526-20.339 13.739-46.65 11.619-49.204-1.059-1.276-16.891-8.542-21.781-9.995-2.024-.602-2.579.037-5.302 6.107M61.622 19.451c-4.776 2.999-9.88 6.393-11.343 7.544-2.516 1.979-2.551 2.121-.646 2.619 1.108.29 6.256 2.24 11.44 4.334 5.185 2.094 9.765 3.611 10.177 3.371 1.042-.607.948-23.319-.097-23.319-.466 0-4.755 2.453-9.531 5.451m146.523 25.728c-1.84 7.248-3.585 13.805-3.879 14.569-.427 1.113.242 1.061 3.35-.261 2.136-.908 7.709-3.025 12.384-4.705 4.675-1.68 8.838-3.354 9.251-3.719.736-.651-15.77-19.063-17.09-19.063-.369 0-2.177 5.931-4.016 13.179M27.213 49.75C18.887 60.314 6.965 82.548 8.805 84.079c.382.318 5.87 1.373 12.195 2.344 32.739 5.026 67.7 17.355 89.281 31.483 4.279 2.802 8.217 5.094 8.75 5.094 1.847 0 .901-6.532-1.895-13.085-8.761-20.529-30.611-41.416-55.197-52.765C55.244 54.06 32.592 46 30.603 46c-.239 0-1.765 1.688-3.39 3.75M230 73.568c-12.807 4.311-28.351 11.625-38.173 17.964-7.32 4.723-22.827 17.226-22.827 18.403 0 .343 3.619 1.193 8.042 1.889 23.184 3.648 49.044 14.83 68.979 29.826 4.791 3.605 7.173 4.855 7.693 4.036.818-1.288 1.948-10.101 2.717-21.186.329-4.74.215-6.031-.354-4-.815 2.911-.844 2.878-.959-1.119-.181-6.317-2.931-21.139-5.265-28.381-2.847-8.833-7.891-21.004-8.696-20.983-.361.01-5.382 1.608-11.157 3.551M1.662 108.626c-.352 2.131-.645 7.759-.651 12.508L1 129.769l10.393-6.182c5.716-3.401 13.591-7.47 17.5-9.044 3.909-1.573 7.107-3.191 7.107-3.594 0-.804-20.021-4.786-28.422-5.653l-5.276-.545-.64 3.875M58.5 126.433c-17.821 4.622-33.811 12.136-48.037 22.572C1.948 155.252 2.19 154.042 6.66 168c12.318 38.468 45.95 71.165 84.845 82.485 8.773 2.553 25.213 5.497 30.764 5.509 2.357.005 2.693-.329 2.26-2.244-2.008-8.881-5.182-51.125-6.127-81.543l-.692-22.293-4.605-4.102c-5.921-5.276-18.619-13.576-27.83-18.192-8.76-4.389-13.602-4.604-26.775-1.187m89.599 13.588c-6.246 13.442-8.101 21.902-8.089 36.889.018 23.356 4.307 73.654 6.474 75.936 1.048 1.102 2.337 1.126 7.147.132 41.182-8.509 77.208-38.515 92.342-76.908l1.959-4.971-5.716-5.127c-12.987-11.648-31.627-22.221-49.473-28.06-9.855-3.224-29.166-6.912-36.197-6.912h-4.256l-4.191 9.021" fill="#1976D2" fill-rule="evenodd"/><path fill-opacity=".4" d="M106.03 2.622c-4.659.78-8.827 1.775-9.263 2.211-1.329 1.329-3.768 15.967-3.75 22.505.022 7.652 2.2 18.211 4.808 23.306 1.086 2.121 7.377 9.306 13.982 15.966l12.007 12.111 1.7-9.611c3.39-19.171 11.209-46.402 17.501-60.951 1.936-4.477 2.081-5.485.897-6.234-2.174-1.377-28.381-.894-37.882.697M208.5 45.217c-1.65 6.706-3.158 12.841-3.351 13.634-.258 1.057.141 1.23 1.5.65 1.018-.435 6.351-2.502 11.851-4.593 5.684-2.162 9.875-4.308 9.711-4.973-.678-2.742-14.523-17.005-16.426-16.923-.157.007-1.635 5.499-3.285 12.205M27.208 50.014C20.124 58.989 7.752 82.085 9.235 83.568c.27.27 5.667 1.363 11.992 2.428 36.175 6.09 68.044 17.508 90.549 32.442l6.724 4.462.303-3.855c.207-2.633-.63-5.912-2.636-10.338-9.362-20.646-29.37-39.477-54.296-51.1-9.602-4.477-27.524-10.651-30.633-10.552-.956.031-2.769 1.362-4.03 2.959M2.522 106.726C1.687 108.809.486 129 1.197 129c.266 0 4.043-2.139 8.393-4.753 4.351-2.614 11.843-6.552 16.651-8.75 4.807-2.198 8.745-4.257 8.75-4.575.005-.318-5.729-1.572-12.741-2.787-20.02-3.469-18.934-3.392-19.728-1.409M62 125.994c-4.675 1.015-11.875 3.057-16 4.538-17.372 6.236-42 21.283-42 25.66 0 3.13 6.5 21.874 9.968 28.744 17.367 34.405 49.059 59.127 86.532 67.501 7.087 1.584 22.683 3.562 23.378 2.965.208-.179-.137-4.505-.768-9.614-2.534-20.538-4.194-44.612-4.794-69.554l-.632-26.266-6.592-5.362c-12.537-10.199-31.557-20.663-37.32-20.532-1.8.041-7.097.905-11.772 1.92" fill="#1976D2" fill-rule="evenodd"/></svg>