<?xml version="1.0" encoding="utf-8"?>
<!-- Generator: Adobe Illustrator 17.0.0, SVG Export Plug-In . SVG Version: 6.00 Build 0)  -->
<!DOCTYPE svg PUBLIC "-//W3C//DTD SVG 1.1//EN" "http://www.w3.org/Graphics/SVG/1.1/DTD/svg11.dtd" [
	<!ENTITY ns_extend "http://ns.adobe.com/Extensibility/1.0/">
	<!ENTITY ns_ai "http://ns.adobe.com/AdobeIllustrator/10.0/">
	<!ENTITY ns_graphs "http://ns.adobe.com/Graphs/1.0/">
	<!ENTITY ns_vars "http://ns.adobe.com/Variables/1.0/">
	<!ENTITY ns_imrep "http://ns.adobe.com/ImageReplacement/1.0/">
	<!ENTITY ns_sfw "http://ns.adobe.com/SaveForWeb/1.0/">
	<!ENTITY ns_custom "http://ns.adobe.com/GenericCustomNamespace/1.0/">
	<!ENTITY ns_adobe_xpath "http://ns.adobe.com/XPath/1.0/">
]>
<svg version="1.1" id="Layer_1" xmlns:x="&ns_extend;" xmlns:i="&ns_ai;" xmlns:graph="&ns_graphs;"
	 xmlns="http://www.w3.org/2000/svg" xmlns:xlink="http://www.w3.org/1999/xlink" x="0px" y="0px" width="112.44px"
	 height="63.481px" viewBox="0 0 112.44 63.481" enable-background="new 0 0 112.44 63.481" xml:space="preserve">
<metadata>
	<sfw  xmlns="&ns_sfw;">
		<slices></slices>
		<sliceSourceBounds  height="63.482" width="112.44" x="364.808" y="-329.327" bottomLeftOrigin="true"></sliceSourceBounds>
	</sfw>
</metadata>
<path fill="#494949" d="M40.086,1.393c1.505-0.195,2.989-0.575,4.531-0.422c0.489,0.049,0.993-0.055,1.49-0.089
	c-0.005-0.068-0.01-0.137-0.014-0.205c-0.641,0.044-1.281,0.088-1.922,0.132c-0.007-0.056-0.015-0.111-0.022-0.167
	c0.124-0.035,0.245-0.093,0.371-0.101c1.643-0.112,3.286-0.245,4.931-0.318c2.246-0.1,4.493-0.162,6.74-0.222
	c0.472-0.013,0.946,0.068,1.419,0.081c1.567,0.043,3.134,0.079,4.701,0.109c1.571,0.03,3.142,0.037,4.713,0.082
	c0.309,0.009,0.613,0.15,0.921,0.218c0.478,0.106,0.955,0.228,1.439,0.293c0.424,0.057,0.858,0.045,1.336,0.066
	c0.011-0.126,0.024-0.281,0.037-0.425c1.004,0.101,1.98,0.259,2.96,0.282c0.966,0.023,1.95-0.177,2.838,0.506
	c-0.09,0.179-0.184,0.366-0.337,0.67c0.331,0.118,0.63,0.248,0.941,0.332c0.866,0.235,1.738,0.454,2.608,0.674
	c0.186,0.047,0.375,0.101,0.564,0.111c2.264,0.122,4.529,0.22,6.791,0.367c0.494,0.032,0.977,0.229,1.465,0.351
	c-0.01,0.084-0.021,0.169-0.031,0.253c-0.567,0.006-1.134,0.017-1.701,0.014c-0.127-0.001-0.32-0.113-0.372-0.061
	c-0.785,0.773-1.508-0.213-2.296-0.072c-0.639,0.114-1.335-0.08-1.98,0.432c0.95,0.334,1.567,1.339,2.763,0.887
	c0.023,0.07,0.046,0.14,0.068,0.21c-0.178,0.249-0.356,0.498-0.54,0.757c1.543,0.558,3.161,0.48,4.808,0.082
	c0.413-0.1,0.888,0.052,1.331,0.088c0.015,0.657,0.139,0.752,0.793,0.576c1.157-0.312,2.328-0.36,3.525-0.198
	c-0.873,0.568-1.925,0.318-2.934,0.645c0.191,0.062,0.318,0.103,0.445,0.143c0.006,0.035,0.012,0.071,0.017,0.106
	c-1.078,0.14-2.156,0.279-3.115,0.404c-0.084,0.468-0.137,0.767-0.202,1.13c-1.17,0.022-2.289,0.042-3.408,0.063
	c-0.008,0.048-0.015,0.097-0.023,0.145c0.379,0.06,0.758,0.177,1.136,0.171c1.918-0.028,3.835-0.097,5.753-0.124
	c0.253-0.004,0.508,0.149,0.874,0.264c0.026-0.022,0.168-0.142,0.31-0.262c0.298,0.363,0.298,0.363-0.261,0.882
	c-0.51-0.536-0.717,0.096-1.057,0.337c0.572,0.017,1.145,0.037,1.717,0.046c0.079,0.001,0.197-0.029,0.233-0.086
	c0.671-1.062,1.708-0.985,2.754-0.912c0.16,0.011,0.337-0.058,0.49-0.127c0.372-0.17,0.693-0.285,1.155-0.145
	c0.411,0.125,0.917-0.069,1.382-0.109c0.166-0.014,0.348-0.023,0.502,0.027c0.446,0.144,0.889,0.304,1.32,0.487
	c0.23,0.098,0.434,0.258,0.647,0.389c-0.235,0.578-0.617,0.725-1.175,0.714c-0.438-0.009-0.879,0.169-1.483,0.299
	c0.593,0.336,0.98,0.555,1.366,0.775c-0.015,0.046-0.03,0.092-0.046,0.137c-0.493,0.093-0.987,0.186-1.386,0.261
	c0.489,0.223,1.003,0.48,1.535,0.687c0.212,0.082,0.466,0.069,0.702,0.073c0.658,0.013,1.317,0.012,1.982,0.14
	c-0.225,0.03-0.45,0.061-0.717,0.096c0.062,0.134,0.117,0.252,0.208,0.448c-0.412,0.028-0.769,0.071-1.126,0.074
	c-1.162,0.008-2.324,0.019-3.485-0.008c-0.449-0.01-0.935-0.033-1.327-0.216c-0.216-0.101-0.354-0.541-0.376-0.84
	c-0.031-0.408-0.155-0.602-0.57-0.604c-0.535-0.002-1.007-0.508-1.613-0.172c-0.1,0.055-0.423-0.293-0.676-0.479
	c-0.392,0.442-1.431-0.283-1.498,0.947c0.881,0.126,1.791,0.242,2.694,0.398c0.204,0.035,0.383,0.212,0.574,0.323
	c-0.22,0.071-0.438,0.147-0.66,0.211c-0.054,0.016-0.119-0.008-0.198-0.015c-0.025,0.191-0.049,0.367-0.082,0.615
	c0.518,0.091,1.055,0.159,1.576,0.291c0.179,0.046,0.317,0.253,0.473,0.386c-0.147,0.108-0.294,0.216-0.441,0.324l-1.317,0.707
	c-0.412,0.114-0.819,0.252-1.237,0.336c-0.399,0.08-0.833,0.17-0.99-0.404c-0.013-0.046-0.241-0.097-0.263-0.067
	c-0.105,0.14-0.173,0.307-0.268,0.492c-0.623,0.121-1.104-0.737-1.924-0.318c0.42,0.117,0.725,0.202,1.163,0.324
	c-0.193,0.125-0.258,0.205-0.316,0.2c-0.974-0.077-1.872,0.306-2.805,0.467c-0.124,0.021-0.218,0.213-0.326,0.326
	c0.12,0.097,0.234,0.261,0.363,0.275c0.227,0.023,0.463-0.066,0.696-0.073c0.936-0.029,1.872-0.046,2.974-0.07
	c-0.208,0.292-0.274,0.385-0.34,0.478c0.028,0.044,0.057,0.088,0.085,0.131c0.36-0.232,0.693-0.566,1.087-0.669
	c0.458-0.119,0.969-0.036,1.456-0.041c0.005,0.053,0.009,0.107,0.014,0.16c-0.367,0.061-0.735,0.122-1.102,0.184
	c-0.011,0.044-0.021,0.088-0.032,0.132c0.201,0.061,0.405,0.115,0.604,0.183c0.261,0.089,0.514,0.203,0.779,0.278
	c0.159,0.045,0.341,0.075,0.5,0.045c1.419-0.261,2.817-0.145,4.216,0.271c-0.376,0.026-0.753,0.052-1.129,0.077
	c-0.001,0.047-0.001,0.093-0.002,0.14c1.253,0.134,2.506,0.268,3.758,0.402c0.013,0.083,0.026,0.167,0.039,0.25
	c-0.492,0.309-0.984,0.619-1.56,0.981c0.629,0.05,1.27,0.176,1.9,0.136c1.039-0.066,2.071-0.24,3.106-0.368
	c0.021-0.003,0.046-0.01,0.064-0.004c0.293,0.107,0.586,0.216,0.879,0.325c-0.257,0.074-0.511,0.188-0.773,0.213
	c-0.624,0.059-1.26,0.029-1.877,0.123c-0.488,0.075-0.956,0.283-1.419,0.53c1.022,0.047,2.056-0.402,3.026,0.146
	c0.008,0.07,0.016,0.139,0.023,0.209c-0.345,0.041-0.705,0.168-1.031,0.107c-1.221-0.228-2.37-0.12-3.507,0.415
	c-0.464,0.218-1.021,0.24-1.536,0.351c0.003,0.068,0.006,0.137,0.009,0.205c1.297,0.05,2.594,0.101,3.98,0.154
	c-0.132,0.209-0.213,0.338-0.31,0.491c0.146,0.092,0.288,0.18,0.539,0.337c-0.435,0.228-0.809,0.425-1.215,0.638
	c0.885,0.992-0.635,0.682-0.686,1.344c0.423,0.052,0.859,0.106,1.295,0.16c-0.002,0.052-0.004,0.105-0.006,0.157
	c-1.234,0.085-2.468,0.169-3.731,0.256c0.063,0.077,0.131,0.159,0.203,0.248c-0.414,0.078-0.81,0.152-1.206,0.226
	c0.015,0.053,0.03,0.107,0.044,0.16c1.072,0.039,2.143,0.077,3.215,0.116c-0.001,0.082-0.002,0.164-0.003,0.246
	c-1.362,0.202-2.724,0.403-4.087,0.605c-0.019,0.062-0.037,0.123-0.056,0.185c0.352,0.244,0.704,0.488,1.14,0.791
	c-0.354,0.571-0.748,1.204-1.142,1.838c0.115,0.022,0.349,0.066,0.584,0.111c-1.114,0.557-2.321,0.149-3.461,0.553
	c0.795,0.035,1.59,0.07,2.517,0.111c-0.426,0.664-0.767,0.96-1.373,0.557c-0.268-0.178-0.452,0.008-0.707,0.191
	c-0.36,0.259-0.867,0.314-1.479,0.51c0.399,0.131,0.615,0.202,0.969,0.318c-0.896,0.261-1.666,0.486-2.437,0.711
	c-0.038-0.064-0.076-0.128-0.113-0.192c-0.065,0.209-0.13,0.418-0.243,0.778c0.468-0.058,0.816-0.094,1.162-0.146
	c2.558-0.384,5.141-0.135,7.707-0.31c2.163-0.147,4.278,0.227,6.389,0.642c0.42,0.082,0.86,0.058,1.302,0.174
	c-1.213,0.083-2.426,0.166-3.638,0.249c0,0.06-0.001,0.119-0.001,0.179c0.489,0.02,0.978,0.04,1.468,0.061
	c0.005,0.033,0.011,0.067,0.016,0.1c-0.149,0.06-0.299,0.12-0.552,0.223c2.224,0.052,4.325,0.1,6.425,0.149
	c0,0.029,0.001,0.058,0.001,0.088c-1.642,0.113-3.284,0.24-4.927,0.333c-1.587,0.09-3.186-0.065-4.771,0.067
	c0.003,0.109,0.006,0.218,0.009,0.328c2.01-0.055,4.02-0.111,6.03-0.166c0.005,0.046,0.01,0.091,0.015,0.137
	c-2.01,0.138-4.02,0.275-6.031,0.413c-0.004,0.075-0.008,0.15-0.012,0.225c0.162,0.036,0.325,0.105,0.487,0.105
	c2.598,0,5.195-0.014,7.793-0.007c0.369,0.001,0.737,0.101,1.297,0.183c-0.257,0.149-0.325,0.224-0.391,0.222
	c-0.689-0.02-1.38-0.092-2.067-0.067c-0.51,0.019-1.019,0.141-1.522,0.25c-0.62,0.133-1.232,0.3-1.875,0.521
	c0.733-0.01,1.465-0.02,2.198-0.03c0.007,0.082,0.014,0.164,0.02,0.246c-0.783,0.11-1.563,0.253-2.349,0.323
	c-0.949,0.085-1.91,0.056-2.854,0.17c-1.238,0.15-2.46,0.458-3.7,0.571c-0.842,0.077-1.703-0.061-2.556-0.112
	c-0.295-0.018-0.59-0.098-0.882-0.087c-0.677,0.024-1.352,0.085-2.08,0.135c0.01-0.151,0.018-0.274,0.025-0.383
	c-0.715,0.131-1.403,0.275-2.097,0.378c-0.402,0.059-0.819,0.02-1.219,0.085c-0.314,0.051-0.613,0.195-0.924,0.299
	c0.33,0.693,0.823,0.712,1.487,0.609c1.318-0.203,2.646,0.082,3.971,0.101c0.754,0.011,1.509,0.043,2.263,0.079
	c1.054,0.05,2.107,0.113,3.215,0.319c-0.241,0.205-0.482,0.411-0.723,0.616c0.01,0.059,0.02,0.119,0.03,0.178
	c0.865-0.003,1.731-0.005,2.596-0.008c0.016,0.056,0.033,0.112,0.049,0.169c-0.341,0.09-0.678,0.208-1.024,0.263
	c-0.738,0.117-1.48,0.221-2.224,0.292c-0.601,0.058-1.208,0.054-1.812,0.09c-0.711,0.042-1.421,0.096-2.123,0.287
	c0.542,0.115,1.084,0.229,1.626,0.344c0.021,0.086,0.041,0.172,0.062,0.258c0.051-0.2,0.102-0.4,0.153-0.601
	c0.091,0.07,0.183,0.141,0.274,0.211c-0.078,0.139-0.155,0.279-0.309,0.556c1.019,0.069,1.986,0.134,2.953,0.2
	c0.004,0.064,0.008,0.129,0.011,0.193c-1.13,0.14-2.258,0.301-3.391,0.413c-1.019,0.1-2.082-0.012-2.949,0.818
	c4.592-0.225,9.168-0.448,13.744-0.672c0.014,0.047,0.029,0.095,0.043,0.142c-0.352,0.092-0.7,0.248-1.055,0.265
	c-3.211,0.156-6.423,0.277-9.634,0.438c-0.416,0.021-0.823,0.214-1.236,0.321c-0.537,0.14-1.076,0.274-1.648,0.419
	c0.004,0.061,0.012,0.177,0.024,0.354c-1.493,0.102-2.961,0.203-4.326,0.296c1,1.004,2.302,0.046,3.505,0.454
	c-0.428,0.145-0.856,0.29-1.283,0.435c-0.001,0.077-0.002,0.154-0.003,0.23c0.694,0.032,1.39,0.05,2.083,0.101
	c0.705,0.051,1.408,0.134,2.112,0.204c0.019,0.056,0.038,0.112,0.056,0.168c-0.228,0.076-0.455,0.213-0.685,0.218
	c-0.821,0.016-1.643-0.017-2.464-0.024c-0.208-0.002-0.416,0.026-0.626,0.041c0.226,0.883,0.904,0.813,1.532,0.837
	c1.484,0.057,2.968,0.113,4.515,0.173c-0.115,0.177-0.22,0.339-0.381,0.587c0.78-0.008,1.498-0.002,2.215-0.025
	c0.657-0.021,1.313-0.091,1.97-0.094c0.165-0.001,0.331,0.174,0.496,0.268c-0.012,0.078-0.024,0.156-0.036,0.233
	c-0.58,0.04-1.161,0.123-1.74,0.109c-0.818-0.02-1.646-0.228-2.449-0.15c-1.564,0.153-3.123-0.478-4.696,0.074
	c-0.568,0.199-1.251,0.152-1.872,0.097c-0.667-0.059-1.287-0.143-1.971,0.071c-0.345,0.108-0.844-0.279-1.161-0.399
	c-0.252,0.121-0.467,0.296-0.698,0.322c-0.781,0.087-1.568,0.12-2.365,0.257c1.284,0.146,2.568,0.292,3.851,0.438
	c-2.888,0.611-5.896,0.107-8.755,1.102c0.728,0.017,1.457,0.063,2.184,0.046c1.181-0.027,2.379,0.014,3.536-0.18
	c0.882-0.148,1.691,0.083,2.537-0.019c0.002,0.063,0.003,0.127,0.005,0.19c-1.328,0.091-2.656,0.182-4.037,0.277
	c0.868,0.526,2.904,0.549,6.688,0.108c-0.048-1.056,1.091-0.462,1.403-1.03c-0.192-0.332-1,0.032-0.872-0.836
	c1.979-0.007,3.94-0.013,5.923-0.02c-0.237,0.494-0.235,0.507-2.316,0.746c-0.823,0.094-1.654,0.12-2.493,0.277
	c0.304,0.119,0.609,0.238,0.913,0.357c-0.002,0.059-0.003,0.118-0.005,0.177c-0.549,0.075-1.097,0.15-1.646,0.226
	c0.004,0.049,0.009,0.097,0.013,0.146c1.226-0.084,2.468-0.081,3.673-0.29c0.58-0.101,1.142-0.239,1.741-0.241
	c0.969-0.003,0.969-0.025,2.111,0.715c-2.119,0.409-4.073,0.787-6.027,1.164c-0.005,0.052-0.009,0.103-0.014,0.155
	c0.728,0.076,1.456,0.152,2.185,0.227c0.001,0.073,0.002,0.146,0.003,0.218c-0.147,0.034-0.293,0.081-0.442,0.101
	c-0.918,0.126-1.846,0.202-2.753,0.384c-0.518,0.104-1,0.381-1.5,0.577c-1.114,0.437-2.275,0.494-3.451,0.429
	c-0.413-0.023-0.731,0.078-0.797,0.641c1.04,0.195,2.075,0.424,3.12,0.578c1.47,0.216,2.943-0.139,4.414-0.042
	c0.463,0.03,0.915,0.224,1.372,0.343c-0.013,0.108-0.027,0.216-0.04,0.325c-1.06,0.009-2.121,0.013-3.181,0.029
	c-0.459,0.007-0.919,0.034-1.378,0.063c-0.147,0.009-0.291,0.073-0.437,0.076c-0.641,0.012-1.235-0.049-1.899,0.253
	c-0.633,0.288-1.472,0.121-2.22,0.156c-1.303,0.06-2.606,0.135-3.91,0.177c-0.719,0.023-1.439-0.019-2.158-0.01
	c-0.634,0.008-1.268,0.054-1.902,0.07c-0.951,0.023-1.903,0.022-2.853,0.059c-0.222,0.009-0.439,0.127-0.642,0.283
	c1.936,0.232,3.885,0.074,5.745,0.569c0.277-0.123,0.546-0.277,0.836-0.351c0.099-0.025,0.25,0.151,0.377,0.235
	c-0.092,0.106-0.177,0.296-0.276,0.304c-0.831,0.064-1.666,0.095-2.499,0.135c-0.163,0.008-0.327,0.023-0.491,0.018
	c-0.201-0.007-0.403-0.021-0.602-0.051c-0.326-0.049-0.657-0.186-0.973-0.156c-0.506,0.048-0.996,0.309-1.502-0.052
	c-0.069-0.049-0.308,0.205-0.476,0.217c-0.924,0.067-1.851,0.116-2.777,0.134c-0.17,0.003-0.342-0.163-0.509-0.124
	c-0.308,0.021-0.616,0.046-0.925,0.063c-2.265,0.121-4.529,0.245-6.795,0.354c-0.362,0.017-0.728-0.071-1.09-0.055
	c-1.91,0.086-3.82,0.168-5.727,0.294c-1.574,0.104-3.149,0.226-4.715,0.412c-2.594,0.307-5.18,0.679-7.771,1.01
	c-2.461,0.315-4.924,0.613-7.385,0.918c-0.017-0.088-0.033-0.176-0.05-0.265c0.83-0.196,1.66-0.392,2.533-0.599
	c-0.088-0.061-0.17-0.167-0.236-0.158c-1.559,0.224-3.116,0.467-4.676,0.685c-0.166,0.023-0.354-0.082-0.526-0.146
	c-0.11-0.041-0.203-0.16-0.31-0.168c-1.308-0.093-2.606-0.175-3.91,0.161c-1.104,0.284-2.249,0.414-3.374,0.618
	c-0.385,0.07-0.766,0.16-1.173,0.131c2.11-0.865,4.382-1.116,6.549-1.752c-0.01-0.054-0.019-0.107-0.029-0.161
	c-0.861,0.156-1.718,0.329-2.583,0.46c-0.481,0.073-0.972,0.074-1.459,0.107c-0.01-0.075-0.019-0.15-0.029-0.225
	c0.573-0.131,1.146-0.262,1.72-0.393c-0.012-0.079-0.025-0.159-0.037-0.238c-1.44,0.099-2.88,0.197-4.123,0.283
	c-0.326-0.174-0.489-0.33-0.662-0.342c-1.027-0.07-2.056-0.107-3.085-0.156c-0.086-0.004-0.189,0.011-0.255-0.03
	c-1.352-0.832-2.766-0.125-4.148-0.175c-0.223-0.008-0.447-0.003-0.671-0.003c-0.01-0.077-0.021-0.154-0.031-0.231
	c0.449-0.17,0.899-0.34,1.515-0.574c-2.223,0.152-4.278,0.293-6.332,0.434c-0.005-0.051-0.01-0.102-0.015-0.153
	c1.208-0.237,2.417-0.475,3.625-0.712c-0.012-0.069-0.025-0.139-0.037-0.208c-2.382,0.088-4.765,0.176-7.147,0.264
	c-0.02-0.069-0.041-0.138-0.061-0.206c0.357-0.11,0.707-0.281,1.071-0.317c0.991-0.097,1.989-0.131,2.983-0.205
	c0.21-0.016,0.415-0.1,0.623-0.153c-0.007-0.073-0.014-0.145-0.021-0.218c-0.867,0.001-1.734,0.003-2.6,0.004
	c-0.018-0.08-0.035-0.16-0.053-0.24c0.4-0.098,0.797-0.217,1.202-0.29c1.327-0.239,2.657-0.461,3.986-0.69
	c-0.007-0.075-0.015-0.149-0.022-0.224c-0.565,0.008-1.13,0.015-1.809,0.024c0.169-0.163,0.262-0.253,0.455-0.44
	c-0.795-0.134-1.502-0.288-2.216-0.362c-0.566-0.058-1.143-0.008-1.715-0.024c-0.602-0.017-1.169,0.123-1.816-0.147
	c-0.518-0.216-1.257,0.089-1.896,0.177c-0.49,0.067-0.975,0.17-1.465,0.234c-1.023,0.133-2.048,0.25-3.072,0.374
	c-0.011-0.08-0.021-0.16-0.032-0.24c1.402-0.202,2.805-0.403,4.207-0.605c0.02-0.082,0.039-0.165,0.059-0.247
	c-0.111-0.071-0.222-0.143-0.347-0.223c0.607-0.091,1.211-0.182,1.814-0.273c-0.004-0.1-0.008-0.199-0.011-0.299
	c-0.735,0.014-1.469,0.029-2.204,0.043c-0.011-0.112-0.022-0.224-0.032-0.336c0.983-0.371,2.051-0.334,3.053-0.615
	c0.017,0.049,0.034,0.099,0.051,0.148c-0.071,0.095-0.143,0.189-0.214,0.284c0.009,0.06,0.017,0.12,0.026,0.179
	c1.174-0.139,2.347-0.278,3.521-0.418c-0.005-0.075-0.011-0.151-0.016-0.226c-0.536,0.037-1.073,0.065-1.608,0.116
	c-0.146,0.014-0.291,0.149-0.428,0.136c-0.273-0.027-0.762-0.096-0.77-0.185c-0.032-0.341,0.087-0.679,0.58-0.653
	c0.097,0.005,0.205-0.205,0.389-0.403c-1.928-0.21-3.671-0.107-5.428,0.193c-1.124,0.192-2.288,0.153-3.435,0.203
	c-0.173,0.008-0.35-0.065-0.525-0.1c-0.009-0.077-0.019-0.154-0.028-0.231c0.237-0.057,0.471-0.13,0.71-0.168
	c1.408-0.224,2.848-0.329,4.217-0.695c1.001-0.267,1.911-0.873,2.836-1.461c-0.107-0.019-0.219-0.068-0.32-0.052
	c-1.102,0.184-2.211,0.34-3.299,0.584C5.231,51.582,4.571,51.9,3.88,52.092c-0.331,0.092-0.696,0.06-1.175,0.092
	c0.163-0.161,0.237-0.294,0.344-0.332c1.179-0.419,2.361-0.833,3.55-1.224c0.241-0.079,0.523-0.026,0.771-0.093
	c0.661-0.179,1.322-0.367,1.96-0.612c0.11-0.042,0.206-0.424,0.139-0.573c-0.272-0.603-1.137-0.904-1.726-0.583
	c-0.295,0.161-0.466,0.052-0.737-0.009C6.304,48.6,5.57,48.597,4.857,48.48c-0.229-0.038-0.429-0.245-0.647-0.365
	c-0.258-0.141-0.543-0.418-0.779-0.383C2.322,47.897,1.226,48.149,0,48.247c0.138-0.109,0.261-0.282,0.415-0.316
	c0.768-0.168,1.544-0.3,2.318-0.445c-0.001-0.061-0.001-0.123-0.002-0.184c-0.442,0.03-0.884,0.061-1.326,0.091
	c-0.022-0.08-0.045-0.16-0.067-0.24c0.208-0.088,0.408-0.204,0.625-0.26c1.002-0.261,2.023-0.462,3.008-0.774
	c0.539-0.171,1.021-0.522,1.569-0.814c-0.184-0.255-0.304-0.421-0.44-0.608c1.53-0.38,3.089-0.475,4.465-1.26
	c-0.134-0.032-0.268-0.064-0.401-0.096c-0.007-0.051-0.013-0.101-0.02-0.152c0.204-0.04,0.411-0.069,0.611-0.125
	c0.215-0.06,0.423-0.145,0.612-0.328c-0.942-0.155-1.82,0.257-2.726,0.362c-0.022-0.092-0.044-0.183-0.066-0.275
	c1.14-0.263,2.28-0.526,3.419-0.789c-0.005-0.067-0.009-0.135-0.014-0.202c-0.129-0.052-0.258-0.105-0.428-0.174
	c0.081-0.184,0.154-0.352,0.228-0.522c-0.254-0.047-0.502-0.093-0.75-0.139c-0.008-0.049-0.015-0.098-0.023-0.148
	c0.36-0.104,0.722-0.203,1.081-0.312c0.573-0.174,1.144-0.352,1.713-0.538c0.052-0.017,0.091-0.097,0.119-0.156
	c0.075-0.161,0.141-0.326,0.273-0.637c-0.205-0.015-0.491-0.044-0.778-0.055c-0.538-0.02-1.077-0.06-1.614-0.037
	c-0.73,0.031-1.458,0.118-2.187,0.169c-0.2,0.014-0.404-0.015-0.624-0.107c1.746-0.854,3.755-1.233,4.857-3.088
	c-0.555-0.172-1.392-0.114-1.381-1.233c-2.271-0.101-4.607-0.205-6.943-0.309c-0.016-0.056-0.033-0.111-0.049-0.167
	c1.275-0.744,2.701-1.022,4.227-1.181c-0.051-0.152-0.097-0.292-0.197-0.591c1.124-0.213,2.229-0.422,3.445-0.652
	c-0.138-0.219-0.198-0.447-0.332-0.506c-0.607-0.265-1.234-0.483-1.855-0.715c-0.038-0.014-0.086-0.001-0.129-0.006
	c-1.079-0.132-2.156-0.28-3.237-0.39c-0.526-0.054-1.06-0.032-1.59-0.06c-0.096-0.005-0.188-0.087-0.296-0.14
	c0.099-0.213,0.188-0.403,0.34-0.729c-0.74-0.015-1.394-0.028-2.148-0.044c0.281-0.684,0.879-0.777,1.346-0.826
	c1.694-0.178,3.195-0.961,4.796-1.423c0.162-0.047,0.277-0.254,0.538-0.506c-1.216-0.099-2.247-0.182-3.278-0.266
	c0.002-0.048,0.005-0.096,0.007-0.145c0.308-0.158,0.616-0.317,1.032-0.53c-0.647-0.107-1.101-0.222-1.561-0.248
	c-0.429-0.024-0.863,0.048-1.353,0.081c-0.017-0.138-0.038-0.31-0.065-0.531c-0.353,0.068-0.7,0.135-1.047,0.202
	c-0.029-0.051-0.057-0.102-0.086-0.153c0.409-0.293,0.691-0.647,1.206-0.924c1.037-0.559,2.158-0.577,3.224-0.884
	c0.684-0.197,1.397-0.288,2.094-0.44c0.136-0.03,0.259-0.119,0.374-0.311c-0.406-0.006-0.813-0.011-1.272-0.018
	c0.057-0.225,0.102-0.401,0.15-0.589c-0.905-0.265-1.698,0.582-2.608,0.2c-0.765-0.321-1.707,0.471-2.383-0.421
	c1.135-0.43,2.323-0.879,3.511-1.329c-0.022-0.061-0.044-0.122-0.066-0.182c-1.137-0.334-2.181,0.09-3.235,0.432
	c-0.606,0.197-1.213,0.392-1.881,0.608c0.139-0.76,1.459-0.396,1.198-1.467c0.575-0.346,1.443-0.458,1.836-1.384
	c-0.49,0.008-0.881,0.014-1.445,0.023c0.293-0.192,0.437-0.287,0.644-0.423c-0.682-0.59-1.377,0.465-2.112-0.184
	c0.395-0.132,0.731-0.21,1.035-0.356c0.321-0.153,0.936-0.03,0.769-0.738c-0.014-0.059,0.315-0.216,0.497-0.3
	c0.553-0.254,1.113-0.495,1.667-0.739c-0.21-0.402-0.346-0.663-0.524-1.004c-0.788-0.185-1.939,0.015-2.138-1.38
	c0.546,0.136,1.083,0.269,1.62,0.403c0.028-0.066,0.056-0.131,0.084-0.197c-0.644-0.481-1.288-0.962-1.932-1.442
	c0.029-0.076,0.058-0.153,0.087-0.229c1.383-0.019,2.749-0.633,4.152,0.009c0.091,0.041,0.207,0.044,0.31,0.039
	c0.656-0.027,1.311-0.081,1.968-0.09c1.668-0.024,3.337-0.021,5.005-0.051c0.273-0.005,0.575-0.072,0.81-0.205
	c1.343-0.757,2.835-0.456,4.259-0.617c0.213-0.024,0.455,0.202,0.682,0.315c0.229,0.114,0.456,0.232,0.684,0.349
	c0.027-0.047,0.053-0.095,0.08-0.142c-0.107-0.083-0.214-0.166-0.321-0.249c0.001-0.057,0.001-0.113,0.002-0.17
	c1.611,0.094,3.195-0.058,4.78-0.212c-0.006-0.089-0.012-0.177-0.018-0.266c-0.442,0.03-0.886,0.101-1.326,0.083
	c-0.987-0.041-1.973-0.126-2.959-0.196c-0.128-0.009-0.285-0.097-0.378-0.049c-0.598,0.309-1.205,0.118-1.82,0.111
	c-2.605-0.027-5.211,0.012-7.816,0.005c-0.336-0.001-0.671-0.133-0.994-0.333c1.301-0.085,2.491-0.721,3.846-0.43
	c0.761,0.163,1.602-0.048,2.407-0.085c0.213-0.01,0.436-0.033,0.639,0.015c1.46,0.346,2.916,0.514,4.436,0.425
	c2.152-0.126,4.321,0.038,6.471-0.106c1.368-0.092,2.714-0.519,4.071-0.788c0.118-0.023,0.268-0.021,0.371,0.032
	c0.762,0.394,1.435-0.004,2.028-0.13c0.085-0.428,0.15-0.757,0.221-1.119c-0.725,0.174-1.633-0.237-2.445,0.455
	c-0.214,0.182-0.79-0.111-1.196-0.093c-1.16,0.051-2.318,0.149-3.476,0.228c-0.004,0.113-0.008,0.226-0.012,0.339
	c0.988,0.117,1.977,0.235,2.965,0.352c0,0.055-0.001,0.11-0.001,0.165c-2.726-0.023-5.453-0.045-8.196-0.068
	c-0.101-0.579-0.072-0.638,0.535-0.691c0.909-0.079,1.829-0.077,2.727-0.218c0.636-0.1,1.24-0.395,1.866-0.572
	c0.862-0.244,1.731-0.461,2.598-0.689c-0.014-0.079-0.028-0.158-0.041-0.237c-0.893,0.127-1.789,0.238-2.68,0.385
	c-1.571,0.259-3.137,0.55-4.71,0.794c-0.145,0.023-0.327-0.193-0.492-0.298c0.131-0.112,0.248-0.292,0.396-0.324
	c0.992-0.215,1.99-0.399,3.051-0.763c-0.167-0.071-0.349-0.227-0.499-0.2C24.4,6.823,22.39,7.207,20.383,7.601
	c-0.841,0.165-1.675,0.363-2.512,0.546c-0.023-0.085-0.047-0.171-0.07-0.256c0.687-0.189,1.375-0.377,2.062-0.566
	c0.003-0.033,0.006-0.066,0.009-0.098c-0.416,0.001-0.831,0.002-1.247,0.003c-0.02-0.068-0.039-0.136-0.059-0.204
	c1.395-0.461,2.791-0.922,4.186-1.383c-0.004-0.042-0.007-0.085-0.011-0.127c-0.798-0.016-1.595-0.045-2.393-0.043
	c-0.6,0.001-1.201,0.063-1.801,0.051c-0.136-0.003-0.269-0.201-0.403-0.31c0.025-0.051,0.05-0.101,0.075-0.152
	c-0.83-0.056-1.661-0.112-2.491-0.168c-0.011-0.035-0.023-0.069-0.034-0.104c0.155-0.037,0.31-0.101,0.466-0.106
	c1.598-0.055,3.196-0.096,4.793-0.151c0.745-0.026,1.492-0.05,2.234-0.117c2.109-0.188,4.235,0.254,6.341-0.241
	c0.873-0.205,1.794-0.21,2.693-0.306c-0.001-0.108-0.002-0.215-0.003-0.323c-1.427-0.093-2.854-0.187-4.428-0.29
	c0.241-0.152,0.382-0.313,0.531-0.322c0.729-0.041,1.461-0.044,2.192-0.054c0.15-0.002,0.302,0.039,0.452,0.034
	c2.35-0.079,4.7-0.181,7.051-0.233c0.767-0.017,1.537,0.091,2.306,0.142c-0.018-0.077-0.035-0.153-0.053-0.23
	c0.179-0.11,0.35-0.287,0.538-0.307c0.122-0.013,0.268,0.205,0.504,0.405c1.557-0.107,3.282-0.195,5-0.35
	c2.079-0.188,4.148-0.5,6.229-0.632c1.554-0.099,3.122,0.021,4.682-0.006c0.285-0.005,0.566-0.247,0.8-0.517
	c-0.476,0.033-0.952,0.083-1.428,0.094c-1.024,0.025-2.048,0.035-3.073,0.04c-0.322,0.002-0.646-0.063-0.966-0.044
	c-2.423,0.143-4.848,0.264-7.266,0.467c-1.183,0.099-2.353,0.359-3.584,0.449c0.344-0.135,0.689-0.27,1.033-0.405
	c-0.001-0.034-0.002-0.069-0.003-0.103c-0.598-0.014-1.198-0.002-1.793-0.053c-0.285-0.025-0.559-0.17-0.838-0.261L40.086,1.393z
	 M56.207,6.904c-0.004-0.075-0.008-0.149-0.012-0.224c-0.456,0.031-0.912,0.081-1.369,0.091c-2.215,0.048-4.412,0.382-6.637,0.386
	c-0.61,0.001-1.432-0.206-2.016,0.386c-0.095,0.097-0.331,0.056-0.502,0.076c-0.512,0.061-1.025,0.118-1.536,0.181
	c-0.191,0.024-0.379,0.069-0.571,0.089c-1.158,0.119-2.315,0.242-3.474,0.346c-0.48,0.043-0.981,0.234-1.418-0.189
	c-0.094-0.091-0.325-0.081-0.485-0.058c-0.425,0.063-0.852,0.136-1.265,0.251c-0.189,0.053-0.348,0.214-0.521,0.326
	c0.175,0.123,0.349,0.347,0.527,0.351c1.231,0.028,2.474,0.109,3.694-0.015c2.923-0.295,5.836-0.693,8.753-1.052
	c0.128-0.016,0.25-0.071,0.377-0.094c1.185-0.219,2.365-0.477,3.559-0.639C54.267,6.985,55.24,6.97,56.207,6.904z M5.253,11.987
	c1.019,0.983,7.732,1.378,9.439,0.612c-0.074-0.025-0.129-0.057-0.187-0.061c-1.981-0.155-3.974,0.224-5.96-0.318
	C7.522,11.94,6.389,12.054,5.253,11.987z M16.822,12.773c0.043,0.08,0.086,0.159,0.129,0.239c1.396-0.244,2.793-0.488,4.189-0.732
	c-0.01-0.073-0.02-0.147-0.03-0.22c-1.246,0.085-2.495,0.153-3.737,0.275C17.176,12.353,17.005,12.621,16.822,12.773z
	 M102.677,35.985c-2.513,0.054-4.85,0.104-7.237,0.155C95.971,36.395,102.18,36.35,102.677,35.985z M93.957,32.66
	c0.002-0.094,0.004-0.188,0.006-0.283c-1.556-0.015-3.112-0.03-4.668-0.045c-0.001,0.061-0.002,0.122-0.003,0.184
	C90.847,32.564,92.402,32.612,93.957,32.66z M97.535,41.105c0.698-0.038,1.395,0.536,2.083-0.001
	C98.917,41.201,98.231,40.64,97.535,41.105z M83.715,57.873c-0.007,0.011-0.014,0.022-0.022,0.033
	c0.914-0.009,1.829-0.018,2.743-0.027c-0.002-0.064-0.004-0.128-0.006-0.192C85.526,57.748,84.62,57.81,83.715,57.873z
	 M98.033,11.106c-0.002,0.087-0.004,0.175-0.006,0.262c0.588,0.002,1.175,0.004,1.763,0.006c0.001-0.093,0.002-0.185,0.003-0.278
	C99.205,11.099,98.619,11.102,98.033,11.106z M95.586,11.122c0.011,0.106,0.021,0.213,0.032,0.319
	c0.279-0.059,0.557-0.117,0.939-0.197c0.186,0.034,0.509,0.094,0.831,0.154c0.006-0.089,0.012-0.177,0.018-0.266
	C96.8,11.129,96.193,11.126,95.586,11.122z M37.794,7.497c0.002,0.04,0.005,0.079,0.007,0.119c0.87-0.06,1.74-0.119,2.609-0.179
	c-0.002-0.04-0.005-0.079-0.007-0.119C39.534,7.378,38.664,7.437,37.794,7.497z M75.586,59.401
	c-0.012-0.078-0.024-0.155-0.036-0.233c-0.488,0.069-0.977,0.139-1.465,0.208c0.001,0.043,0.002,0.085,0.003,0.128
	C74.588,59.47,75.087,59.435,75.586,59.401z M92.498,49.955c-0.015,0.083-0.031,0.167-0.046,0.25
	c0.522,0.064,1.044,0.128,1.566,0.191c0.01-0.078,0.019-0.157,0.029-0.235C93.532,50.092,93.015,50.024,92.498,49.955z"/>
</svg>
