<?xml version="1.0" encoding="utf-8"?>
<!-- Generator: Adobe Illustrator 17.0.0, SVG Export Plug-In . SVG Version: 6.00 Build 0)  -->
<!DOCTYPE svg PUBLIC "-//W3C//DTD SVG 1.1//EN" "http://www.w3.org/Graphics/SVG/1.1/DTD/svg11.dtd" [
	<!ENTITY ns_extend "http://ns.adobe.com/Extensibility/1.0/">
	<!ENTITY ns_ai "http://ns.adobe.com/AdobeIllustrator/10.0/">
	<!ENTITY ns_graphs "http://ns.adobe.com/Graphs/1.0/">
	<!ENTITY ns_vars "http://ns.adobe.com/Variables/1.0/">
	<!ENTITY ns_imrep "http://ns.adobe.com/ImageReplacement/1.0/">
	<!ENTITY ns_sfw "http://ns.adobe.com/SaveForWeb/1.0/">
	<!ENTITY ns_custom "http://ns.adobe.com/GenericCustomNamespace/1.0/">
	<!ENTITY ns_adobe_xpath "http://ns.adobe.com/XPath/1.0/">
]>
<svg version="1.1" id="Layer_1" xmlns:x="&ns_extend;" xmlns:i="&ns_ai;" xmlns:graph="&ns_graphs;"
	 xmlns="http://www.w3.org/2000/svg" xmlns:xlink="http://www.w3.org/1999/xlink" x="0px" y="0px" width="32.615px"
	 height="25.891px" viewBox="0 0 32.615 25.891" enable-background="new 0 0 32.615 25.891" xml:space="preserve">
<metadata>
	<sfw  xmlns="&ns_sfw;">
		<slices></slices>
		<sliceSourceBounds  height="25.891" width="32.615" x="405.35" y="-310.587" bottomLeftOrigin="true"></sliceSourceBounds>
	</sfw>
</metadata>
<path d="M32.615,2.55c0,0.557-0.451,1.008-1.008,1.008H1.008C0.451,3.558,0,3.107,0,2.55V1.008C0,0.451,0.451,0,1.008,0h30.599
	c0.557,0,1.008,0.451,1.008,1.008V2.55z"/>
<path d="M24.804,9.995c0,0.557-0.451,1.008-1.008,1.008H1.008C0.451,11.002,0,10.551,0,9.995V8.452c0-0.557,0.451-1.008,1.008-1.008
	h22.789c0.557,0,1.008,0.451,1.008,1.008V9.995z"/>
<path d="M30.654,17.439c0,0.557-0.451,1.008-1.008,1.008H1.008C0.451,18.446,0,17.995,0,17.439v-1.543
	c0-0.557,0.451-1.008,1.008-1.008h28.638c0.557,0,1.008,0.451,1.008,1.008V17.439z"/>
<path d="M32.615,24.883c0,0.557-0.451,1.008-1.008,1.008H1.008C0.451,25.891,0,25.44,0,24.883V23.34
	c0-0.557,0.451-1.008,1.008-1.008h30.599c0.557,0,1.008,0.451,1.008,1.008V24.883z"/>
</svg>
