<?xml version="1.0" encoding="utf-8"?>
<!-- Generator: Adobe Illustrator 17.0.0, SVG Export Plug-In . SVG Version: 6.00 Build 0)  -->
<!DOCTYPE svg PUBLIC "-//W3C//DTD SVG 1.1//EN" "http://www.w3.org/Graphics/SVG/1.1/DTD/svg11.dtd" [
	<!ENTITY ns_extend "http://ns.adobe.com/Extensibility/1.0/">
	<!ENTITY ns_ai "http://ns.adobe.com/AdobeIllustrator/10.0/">
	<!ENTITY ns_graphs "http://ns.adobe.com/Graphs/1.0/">
	<!ENTITY ns_vars "http://ns.adobe.com/Variables/1.0/">
	<!ENTITY ns_imrep "http://ns.adobe.com/ImageReplacement/1.0/">
	<!ENTITY ns_sfw "http://ns.adobe.com/SaveForWeb/1.0/">
	<!ENTITY ns_custom "http://ns.adobe.com/GenericCustomNamespace/1.0/">
	<!ENTITY ns_adobe_xpath "http://ns.adobe.com/XPath/1.0/">
]>
<svg version="1.1" id="Layer_1" xmlns:x="&ns_extend;" xmlns:i="&ns_ai;" xmlns:graph="&ns_graphs;"
	 xmlns="http://www.w3.org/2000/svg" xmlns:xlink="http://www.w3.org/1999/xlink" x="0px" y="0px" width="115px" height="106.948px"
	 viewBox="0 0 115 106.948" enable-background="new 0 0 115 106.948" xml:space="preserve">
<metadata>
	<sfw  xmlns="&ns_sfw;">
		<slices></slices>
		<sliceSourceBounds  height="106.948" width="115" x="363.417" y="-395.768" bottomLeftOrigin="true"></sliceSourceBounds>
	</sfw>
</metadata>
<path fill="#231F20" d="M21.39,100.624c0,3.492-2.831,6.324-6.324,6.324H6.324c-3.492,0-6.324-2.831-6.324-6.324V6.324
	C0,2.831,2.831,0,6.324,0h8.742c3.492,0,6.324,2.831,6.324,6.324V100.624z"/>
<path fill="#231F20" d="M52.593,100.624c0,3.492-2.831,6.324-6.324,6.324h-8.742c-3.492,0-6.324-2.831-6.324-6.324V38.501
	c0-3.492,2.831-6.324,6.324-6.324h8.742c3.492,0,6.324,2.831,6.324,6.324V100.624z"/>
<path fill="#231F20" d="M83.797,100.624c0,3.492-2.831,6.324-6.324,6.324h-8.742c-3.492,0-6.324-2.831-6.324-6.324V15.602
	c0-3.492,2.831-6.324,6.324-6.324h8.742c3.492,0,6.324,2.831,6.324,6.324V100.624z"/>
<path fill="#231F20" d="M115,100.624c0,3.492-2.831,6.324-6.324,6.324h-8.742c-3.492,0-6.324-2.831-6.324-6.324V73.228
	c0-3.492,2.831-6.324,6.324-6.324h8.742c3.492,0,6.324,2.831,6.324,6.324V100.624z"/>
</svg>
