<?xml version="1.0" encoding="utf-8"?>
<!-- Generator: Adobe Illustrator 17.0.0, SVG Export Plug-In . SVG Version: 6.00 Build 0)  -->
<!DOCTYPE svg PUBLIC "-//W3C//DTD SVG 1.1//EN" "http://www.w3.org/Graphics/SVG/1.1/DTD/svg11.dtd" [
	<!ENTITY ns_extend "http://ns.adobe.com/Extensibility/1.0/">
	<!ENTITY ns_ai "http://ns.adobe.com/AdobeIllustrator/10.0/">
	<!ENTITY ns_graphs "http://ns.adobe.com/Graphs/1.0/">
	<!ENTITY ns_vars "http://ns.adobe.com/Variables/1.0/">
	<!ENTITY ns_imrep "http://ns.adobe.com/ImageReplacement/1.0/">
	<!ENTITY ns_sfw "http://ns.adobe.com/SaveForWeb/1.0/">
	<!ENTITY ns_custom "http://ns.adobe.com/GenericCustomNamespace/1.0/">
	<!ENTITY ns_adobe_xpath "http://ns.adobe.com/XPath/1.0/">
]>
<svg version="1.1" id="Layer_1" xmlns:x="&ns_extend;" xmlns:i="&ns_ai;" xmlns:graph="&ns_graphs;"
	 xmlns="http://www.w3.org/2000/svg" xmlns:xlink="http://www.w3.org/1999/xlink" x="0px" y="0px" width="459.243px"
	 height="124.532px" viewBox="0 0 459.243 124.532" enable-background="new 0 0 459.243 124.532" xml:space="preserve">
<metadata>
	<sfw  xmlns="&ns_sfw;">
		<slices></slices>
		<sliceSourceBounds  width="464.171" height="124.536" y="235.229" x="190.878" bottomLeftOrigin="true"></sliceSourceBounds>
	</sfw>
</metadata>
<path fill="#409E00" d="M459.243,54.633c-2.142,0.445-4.284,0.891-7.562,1.573c3.379,1.141,5.807,1.961,9.64,3.255
	c-5.803-0.254-10.256-0.448-14.708-0.643c-0.04,0.496-0.081,0.991-0.121,1.487c5.682,0.785,11.364,1.569,17.046,2.354
	c0.211,0.433,0.422,0.865,0.633,1.298c-3.88,3.123-7.761,6.247-12.367,9.954c3.081,1.03,5.943,1.987,8.805,2.944
	c-0.022,0.434-0.045,0.868-0.067,1.302c-3.879,0-7.758,0-12.683,0c2.154,2.49,3.583,4.141,5.41,6.254
	c-4.724,3.964-10.937,0.941-16.702,3.769c3.066,1.053,5.412,1.858,7.758,2.664c0.177,0.415,0.355,0.83,0.533,1.246
	c-2.231,0.951-4.463,1.901-6.949,2.961c0.784,0.664,1.489,1.261,3.052,2.584c-2.563,1.668-4.695,3.779-7.224,4.502
	c-2.635,0.754-5.654,0.168-8.505,0.168c-0.107,0.452-0.213,0.905-0.32,1.357c2.525,0.92,5.051,1.84,7.576,2.761
	c-0.007,0.375-0.013,0.749-0.02,1.124c-3.348,0-6.697,0-10.177,0c0.161,1.102,0.283,1.941,0.429,2.942c-1.846,0-3.406,0-4.966,0
	c-0.041,0.177-0.082,0.354-0.123,0.531c2.661,0.679,5.322,1.357,7.982,2.036c0.057,0.516,0.113,1.032,0.17,1.548
	c-4.331,0.75-8.698,2.295-12.988,2.107c-16.129-0.709-32.231-2.028-48.348-3.031c-11.797-0.734-23.596-1.563-35.407-1.937
	c-21.524-0.682-43.056-1.082-64.586-1.544c-4.826-0.104-9.656,0.024-14.484,0.041c-0.332,0.001-0.748-0.185-0.984-0.046
	c-9.285,5.494-19.61,1.738-29.343,3.284c-5.703,0.906-11.481,1.35-17.232,1.94c-19.357,1.986-38.726,3.856-58.069,5.963
	c-6.372,0.694-12.7,1.868-19.011,3.03c-3.455,0.636-4.91-1.204-5.771-3.978c-1.074-3.457,0.778-5.162,3.813-6.248
	c4.383-1.568,8.672-3.405,13.083-4.884c1.713-0.575,3.647-0.488,5.445-1.092c-16.631-0.842-33.27-3.062-49.721,1.546
	c-5.879,1.647-11.799,3.252-17.799,4.329c-5.874,1.055-11.874,1.414-17.817,2.078c0.912,0.29,2.022,0.644,3.132,0.997
	c-0.03,0.419-0.059,0.838-0.089,1.257c-7.278-0.606-14.556-1.212-22.396-1.865c0.83-1.173,1.261-1.781,1.861-2.628
	c-11.675-3.685-23.379-0.612-35.254-1.393c3.645-1.329,7.29-2.657,10.935-3.986c-0.112-0.501-0.224-1.002-0.336-1.503
	c-1.642-0.492-3.285-0.983-5.535-1.657c4.39-1.521,8.234-2.854,12.707-4.404c-4.081-4.31-10.571,1.151-12.196-6.107
	c3.315-0.478,6.668-0.961,9.683-1.396c0.85-1.619,1.643-3.129,2.955-5.625c-3.933,0.606-7.473,1.151-12.464,1.92
	c2.875-1.26,4.409-1.932,5.942-2.604C9.412,88.114,4.644,86.06,0,81.217c4.848-0.782,9.226-1.093,13.364-2.259
	c4.765-1.343,9.363-3.337,13.901-5.348c0.541-0.24,0.251-2.355,0.382-4.085c-3.593,0-6.921,0-11.193,0
	c12.548-10.308,27.77-12.159,43.227-17.459c-5.889-0.98-10.304-1.715-14.719-2.449c0.001-0.505,0.002-1.01,0.003-1.515
	c5.799-0.475,11.598-0.944,17.396-1.43c0.982-0.082,2.602,0.075,2.841-0.411c3.288-6.703,10.594-1.546,14.749-5.995
	c-10.883,1.05-21.787,2.102-33.22,3.205c1.456-3.216,1.456-3.216,8.275-3.284c-0.89-0.442-1.555-0.773-1.895-0.942
	c3.789-1.522,7.763-3.119,13.098-5.262c-3.827-0.577-6.208-0.936-9.678-1.459c4.328-2.149,7.301-3.625,11.543-5.732
	c-5.319,0-9.341,0-13.363,0c-0.025-0.274-0.05-0.547-0.075-0.821c2.632-0.604,5.263-1.208,7.895-1.811
	c-0.024-0.259-0.048-0.517-0.072-0.776c-8.633,0.926-17.267,1.852-25.9,2.779c-0.08-0.394-0.16-0.788-0.241-1.182
	c5.214-1.026,10.387-2.431,15.651-3.001c12.471-1.351,25.036-1.906,37.467-3.52c15.666-2.033,31.233-4.825,46.851-7.238
	c6.633-1.025,13.273-2.022,19.935-2.821c2.754-0.33,4.806,0.452,2.68,4.176c79.834-8.809,159.272-2.996,238.705,3.053
	c-0.007,0.549-0.015,1.097-0.022,1.646c-5.91-0.279-11.818-0.604-17.73-0.817c-2.466-0.089-5.16-0.565-7.372,0.212
	c-9.236,3.245-18.658,1.989-28.011,1.548c-9.773-0.46-19.512-1.616-29.283-2.162c-2.716-0.152-5.493,0.782-9.518,1.419
	c35.344,3.038,69.512,5.975,103.68,8.912c-0.005,0.279-0.01,0.557-0.015,0.836c-7.41,0-14.821,0-22.231,0
	c-0.011,0.267-0.021,0.535-0.032,0.802c6.914,0.885,13.859,1.587,20.731,2.728c3.695,0.613,7.219,2.2,10.901,2.959
	c7.275,1.502,14.561,3.382,21.927,3.892c7.165,0.497,11.548,7.418,19.072,6.239c-0.073,0.477-0.146,0.954-0.219,1.432
	c-2.915,0.228-5.829,0.455-9.838,0.768c1.874,0.898,3.001,1.438,4.215,2.02c-0.69,0.327-1.378,0.653-2.066,0.98
	C453.55,51.724,454.947,54.928,459.243,54.633z"/>
<path fill="#409E00" d="M231.915,0.649c25.653-1.958,51.158,1.049,76.723,2.04c-0.017,0.563-0.034,1.125-0.051,1.688
	c-25.577-0.564-51.154-1.128-76.731-1.692C231.876,2.006,231.895,1.327,231.915,0.649z"/>
<path fill="#409E00" d="M166.145,6.563c14.428-3.26,29.153-3.95,43.918-4.121c0.628-0.007,1.276,1.598,2.013,2.585
	C196.599,6,181.433,6.953,166.268,7.906C166.227,7.458,166.186,7.01,166.145,6.563z"/>
</svg>
