<?xml version="1.0" encoding="utf-8"?>
<!-- Generator: Adobe Illustrator 17.0.0, SVG Export Plug-In . SVG Version: 6.00 Build 0)  -->
<!DOCTYPE svg PUBLIC "-//W3C//DTD SVG 1.1//EN" "http://www.w3.org/Graphics/SVG/1.1/DTD/svg11.dtd" [
	<!ENTITY ns_extend "http://ns.adobe.com/Extensibility/1.0/">
	<!ENTITY ns_ai "http://ns.adobe.com/AdobeIllustrator/10.0/">
	<!ENTITY ns_graphs "http://ns.adobe.com/Graphs/1.0/">
	<!ENTITY ns_vars "http://ns.adobe.com/Variables/1.0/">
	<!ENTITY ns_imrep "http://ns.adobe.com/ImageReplacement/1.0/">
	<!ENTITY ns_sfw "http://ns.adobe.com/SaveForWeb/1.0/">
	<!ENTITY ns_custom "http://ns.adobe.com/GenericCustomNamespace/1.0/">
	<!ENTITY ns_adobe_xpath "http://ns.adobe.com/XPath/1.0/">
]>
<svg version="1.1" id="Layer_1" xmlns:x="&ns_extend;" xmlns:i="&ns_ai;" xmlns:graph="&ns_graphs;"
	 xmlns="http://www.w3.org/2000/svg" xmlns:xlink="http://www.w3.org/1999/xlink" x="0px" y="0px" width="695.24px"
	 height="134.515px" viewBox="0 0 695.24 134.515" enable-background="new 0 0 695.24 134.515" xml:space="preserve">
<metadata>
	<sfw  xmlns="&ns_sfw;">
		<slices></slices>
		<sliceSourceBounds  width="695.24" height="134.515" y="-354.186" x="66.596" bottomLeftOrigin="true"></sliceSourceBounds>
	</sfw>
</metadata>
<g>
	<path d="M12.247,92.578c-2.662,0-4.881-0.488-6.656-1.464c-1.775-0.976-3.115-2.45-4.02-4.419C0.666,84.724,0.141,82.213,0,79.159
		l7.561-1.278c0.07,1.776,0.257,3.257,0.559,4.446c0.301,1.19,0.763,2.077,1.385,2.662c0.62,0.586,1.393,0.879,2.316,0.879
		c1.136,0,1.907-0.354,2.316-1.065c0.407-0.71,0.612-1.526,0.612-2.449c0-1.811-0.435-3.328-1.304-4.553
		c-0.871-1.224-2.015-2.457-3.435-3.701l-4.473-3.887c-1.597-1.348-2.902-2.875-3.914-4.579c-1.012-1.703-1.518-3.798-1.518-6.284
		c0-3.549,1.038-6.274,3.115-8.174c2.077-1.898,4.926-2.848,8.546-2.848c2.165,0,3.94,0.354,5.325,1.064
		c1.384,0.711,2.458,1.661,3.221,2.849c0.763,1.19,1.295,2.486,1.598,3.887c0.301,1.403,0.487,2.795,0.559,4.18l-7.508,1.119
		c-0.071-1.313-0.186-2.468-0.346-3.461c-0.16-0.994-0.479-1.775-0.958-2.343c-0.479-0.568-1.198-0.853-2.157-0.853
		c-1.03,0-1.793,0.382-2.29,1.146c-0.498,0.763-0.745,1.606-0.745,2.529c0,1.527,0.346,2.777,1.038,3.753
		c0.692,0.977,1.641,1.997,2.849,3.062l4.366,3.834c1.81,1.562,3.363,3.346,4.659,5.351c1.295,2.006,1.944,4.482,1.944,7.428
		c0,2.023-0.462,3.853-1.384,5.485c-0.924,1.633-2.21,2.912-3.861,3.834C16.427,92.117,14.484,92.578,12.247,92.578z"/>
	<path d="M27.263,91.993V48.861h18.797v6.07H36.049V66.38h7.721v6.124h-7.721v13.525h10.117v5.964H27.263z"/>
	<path d="M56.709,91.993l-8.2-43.132h7.615l5.112,29.82l4.793-29.82h7.934l-8.2,43.132H56.709z"/>
	<path d="M89.404,92.578c-2.662,0-4.881-0.488-6.656-1.464c-1.775-0.976-3.115-2.45-4.02-4.419c-0.905-1.97-1.429-4.482-1.571-7.535
		l7.561-1.278c0.07,1.776,0.257,3.257,0.559,4.446c0.301,1.19,0.763,2.077,1.385,2.662c0.62,0.586,1.393,0.879,2.316,0.879
		c1.136,0,1.907-0.354,2.316-1.065c0.407-0.71,0.612-1.526,0.612-2.449c0-1.811-0.435-3.328-1.304-4.553
		c-0.871-1.224-2.015-2.457-3.435-3.701l-4.473-3.887c-1.597-1.348-2.902-2.875-3.914-4.579c-1.012-1.703-1.518-3.798-1.518-6.284
		c0-3.549,1.038-6.274,3.115-8.174c2.077-1.898,4.926-2.848,8.546-2.848c2.165,0,3.94,0.354,5.325,1.064
		c1.384,0.711,2.458,1.661,3.221,2.849c0.763,1.19,1.295,2.486,1.598,3.887c0.301,1.403,0.487,2.795,0.559,4.18l-7.508,1.119
		c-0.071-1.313-0.186-2.468-0.346-3.461c-0.16-0.994-0.479-1.775-0.958-2.343c-0.479-0.568-1.198-0.853-2.157-0.853
		c-1.03,0-1.793,0.382-2.29,1.146c-0.498,0.763-0.745,1.606-0.745,2.529c0,1.527,0.346,2.777,1.038,3.753
		c0.692,0.977,1.641,1.997,2.849,3.062l4.366,3.834c1.81,1.562,3.363,3.346,4.659,5.351c1.295,2.006,1.944,4.482,1.944,7.428
		c0,2.023-0.462,3.853-1.384,5.485c-0.924,1.633-2.21,2.912-3.861,3.834C93.584,92.117,91.641,92.578,89.404,92.578z"/>
	<path d="M110.916,91.993l-8.2-43.132h7.615l5.112,29.82l4.793-29.82h7.934l-8.2,43.132H110.916z"/>
	<path d="M128.861,91.993l8.36-43.132h9.745l8.307,43.132h-8.147l-1.544-9.478h-6.816l-1.651,9.478H128.861z M139.564,77.136h5.165
		l-2.609-17.412L139.564,77.136z"/>
	<path d="M159.319,91.993V48.861h8.786v37.168h10.117v5.964H159.319z"/>
	<path d="M182.056,91.993V48.861h8.786v18.212l7.775-18.212h8.52l-8.094,19.383l8.679,23.749h-8.839l-6.656-19.329l-1.385,2.449
		v16.88H182.056z"/>
	<path d="M210.864,91.993V48.861h8.733v43.132H210.864z"/>
	<path d="M225.454,91.993v-7.827h7.668v7.827H225.454z"/>
	<path d="M238.553,91.993V48.861h6.124l9.585,22.471V48.861h7.242v43.132h-5.858l-9.584-23.856v23.856H238.553z"/>
	<path d="M268.052,91.993V48.861h18.797v6.07h-10.011V66.38h7.721v6.124h-7.721v13.525h10.117v5.964H268.052z"/>
	<path d="M295.421,91.993V55.411h-6.656v-6.55h22.044v6.55h-6.549v36.582H295.421z"/>
</g>
<g>
	<path d="M501.262,65.629V48.917h3.033v6.994h3.404v-6.994h3.053v16.712h-3.053v-7.551h-3.404v7.551H501.262z"/>
	<path d="M512.465,65.629l3.342-16.712h3.26l3.342,16.712h-2.827l-0.66-3.859h-2.909l-0.681,3.859H512.465z M516.323,59.832h2.269
		l-1.135-7.015L516.323,59.832z"/>
	<path d="M529.053,65.629l0.288-16.712h3.157l2.373,11.575l2.476-11.575h3.053l0.31,16.712h-2.27l-0.248-11.615l-2.372,11.615
		h-1.836l-2.414-11.657l-0.227,11.657H529.053z"/>
	<path d="M543.02,68.558v-2.124c0.646,0.041,1.179,0.027,1.599-0.042c0.419-0.068,0.739-0.206,0.959-0.413
		c0.22-0.206,0.35-0.484,0.392-0.835c0.041-0.351,0.014-0.781-0.082-1.289l-3.528-14.938h2.827l1.424,6.994l0.763,4.869l0.619-4.869
		l1.238-6.994h2.868l-3.239,15.246c-0.151,0.716-0.306,1.331-0.464,1.847c-0.158,0.515-0.358,0.949-0.599,1.299
		c-0.241,0.35-0.56,0.622-0.959,0.815s-0.908,0.32-1.527,0.381C544.692,68.569,543.928,68.586,543.02,68.558z"/>
	<path d="M558.102,65.856c-1.224,0-2.184-0.241-2.878-0.723c-0.695-0.481-1.18-1.138-1.455-1.97
		c-0.275-0.832-0.412-1.791-0.412-2.878v-5.963c0-1.142,0.137-2.131,0.412-2.971c0.275-0.839,0.76-1.485,1.455-1.939
		c0.694-0.455,1.654-0.681,2.878-0.681c1.155,0,2.059,0.196,2.713,0.588c0.653,0.392,1.117,0.953,1.393,1.682
		c0.275,0.73,0.412,1.575,0.412,2.538v1.403h-2.93v-1.444c0-0.468-0.024-0.894-0.072-1.28c-0.049-0.384-0.179-0.691-0.392-0.918
		c-0.213-0.226-0.581-0.339-1.104-0.339s-0.904,0.12-1.145,0.36c-0.241,0.241-0.396,0.565-0.464,0.97
		c-0.069,0.406-0.103,0.864-0.103,1.372v7.262c0,0.606,0.048,1.104,0.144,1.496c0.096,0.392,0.271,0.688,0.526,0.887
		c0.254,0.2,0.602,0.299,1.042,0.299c0.509,0,0.87-0.12,1.083-0.361c0.213-0.24,0.347-0.56,0.403-0.959
		c0.055-0.399,0.082-0.846,0.082-1.341V59.44h2.93v1.341c0,0.99-0.131,1.867-0.392,2.631c-0.262,0.763-0.719,1.361-1.372,1.795
		C560.203,65.639,559.285,65.856,558.102,65.856z"/>
	<path d="M569.284,65.856c-1.183,0-2.125-0.22-2.827-0.66c-0.702-0.441-1.204-1.073-1.506-1.899
		c-0.303-0.825-0.454-1.802-0.454-2.929v-6.252c0-1.127,0.151-2.094,0.454-2.899c0.303-0.804,0.805-1.42,1.506-1.846
		c0.701-0.426,1.643-0.639,2.827-0.639c1.21,0,2.163,0.213,2.858,0.639c0.693,0.427,1.195,1.042,1.505,1.846
		c0.31,0.805,0.465,1.772,0.465,2.899v6.273c0,1.114-0.155,2.081-0.465,2.899c-0.31,0.819-0.812,1.451-1.505,1.898
		C571.448,65.632,570.495,65.856,569.284,65.856z M569.284,63.607c0.509,0,0.883-0.11,1.124-0.33
		c0.241-0.22,0.403-0.523,0.485-0.908c0.082-0.385,0.124-0.804,0.124-1.259v-7.695c0-0.468-0.041-0.887-0.124-1.259
		c-0.082-0.371-0.244-0.663-0.485-0.877s-0.615-0.32-1.124-0.32c-0.482,0-0.846,0.106-1.093,0.32
		c-0.248,0.213-0.413,0.505-0.495,0.877c-0.082,0.371-0.124,0.791-0.124,1.259v7.695c0,0.455,0.038,0.874,0.114,1.259
		c0.075,0.385,0.237,0.688,0.485,0.908C568.418,63.497,568.789,63.607,569.284,63.607z"/>
	<path d="M576.361,65.629V48.917h4.91c1.005,0,1.82,0.186,2.445,0.557c0.626,0.371,1.087,0.911,1.383,1.62
		c0.296,0.708,0.444,1.564,0.444,2.568c0,1.087-0.186,1.964-0.557,2.631c-0.372,0.667-0.891,1.152-1.559,1.454
		c-0.667,0.303-1.454,0.455-2.362,0.455h-1.651v7.427H576.361z M579.415,56.056h1.156c0.55,0,0.98-0.078,1.289-0.237
		c0.31-0.158,0.522-0.413,0.639-0.763c0.117-0.35,0.176-0.822,0.176-1.414c0-0.605-0.045-1.096-0.134-1.475
		c-0.09-0.378-0.282-0.656-0.578-0.835c-0.296-0.179-0.76-0.269-1.393-0.269h-1.156V56.056z"/>
	<path d="M587.275,65.629V48.917h3.034v6.994h3.404v-6.994h3.053v16.712h-3.053v-7.551h-3.404v7.551H587.275z"/>
	<path d="M603.862,65.856c-1.183,0-2.124-0.22-2.826-0.66c-0.702-0.441-1.204-1.073-1.506-1.899
		c-0.303-0.825-0.455-1.802-0.455-2.929v-6.252c0-1.127,0.152-2.094,0.455-2.899c0.302-0.804,0.804-1.42,1.506-1.846
		c0.702-0.426,1.643-0.639,2.826-0.639c1.21,0,2.163,0.213,2.858,0.639c0.694,0.427,1.196,1.042,1.506,1.846
		c0.31,0.805,0.465,1.772,0.465,2.899v6.273c0,1.114-0.155,2.081-0.465,2.899c-0.31,0.819-0.812,1.451-1.506,1.898
		C606.025,65.632,605.072,65.856,603.862,65.856z M603.862,63.607c0.509,0,0.883-0.11,1.125-0.33c0.24-0.22,0.402-0.523,0.484-0.908
		c0.083-0.385,0.124-0.804,0.124-1.259v-7.695c0-0.468-0.041-0.887-0.124-1.259c-0.082-0.371-0.244-0.663-0.484-0.877
		c-0.241-0.213-0.615-0.32-1.125-0.32c-0.481,0-0.846,0.106-1.093,0.32c-0.248,0.213-0.413,0.505-0.495,0.877
		c-0.082,0.371-0.124,0.791-0.124,1.259v7.695c0,0.455,0.038,0.874,0.114,1.259c0.075,0.385,0.237,0.688,0.484,0.908
		C602.996,63.497,603.368,63.607,603.862,63.607z"/>
	<path d="M610.897,65.629l0.289-16.712h3.157l2.372,11.575l2.476-11.575h3.054l0.309,16.712h-2.269l-0.247-11.615l-2.373,11.615
		h-1.835l-2.414-11.657l-0.227,11.657H610.897z"/>
	<path d="M634.789,66.289v-2.641c-0.151,0.014-0.317,0.028-0.495,0.041c-0.179,0.014-0.35,0.021-0.515,0.021
		c-0.798,0-1.5-0.144-2.104-0.433c-0.606-0.289-1.077-0.746-1.414-1.373c-0.338-0.625-0.505-1.44-0.505-2.444v-4.622
		c0-0.949,0.168-1.74,0.505-2.372c0.337-0.632,0.811-1.107,1.424-1.423c0.612-0.317,1.331-0.474,2.156-0.474
		c0.165,0,0.336,0.003,0.516,0.01c0.179,0.007,0.323,0.018,0.433,0.031V47.68h2.661v2.929c0.124-0.013,0.272-0.024,0.444-0.031
		c0.172-0.007,0.334-0.01,0.485-0.01c0.853,0,1.584,0.158,2.197,0.474c0.612,0.317,1.087,0.794,1.424,1.433
		c0.337,0.639,0.505,1.427,0.505,2.363v4.622c0,1.004-0.165,1.819-0.494,2.444c-0.331,0.626-0.774,1.087-1.331,1.383
		c-0.557,0.296-1.179,0.444-1.867,0.444c-0.22,0-0.444-0.007-0.67-0.021c-0.227-0.014-0.458-0.028-0.692-0.041v2.62H634.789z
		 M634.294,61.854c0.082,0,0.172-0.004,0.269-0.011c0.095-0.007,0.172-0.017,0.226-0.031v-9.388
		c-0.096-0.013-0.196-0.024-0.299-0.031c-0.103-0.007-0.203-0.01-0.3-0.01c-0.399,0-0.726,0.082-0.98,0.247
		c-0.254,0.165-0.444,0.427-0.567,0.784c-0.124,0.357-0.186,0.825-0.186,1.403v4.663c0,0.565,0.052,1.018,0.154,1.362
		c0.103,0.344,0.286,0.599,0.547,0.763C633.42,61.771,633.799,61.854,634.294,61.854z M638.028,61.833
		c0.455,0,0.808-0.075,1.063-0.227c0.254-0.151,0.433-0.402,0.536-0.753c0.103-0.35,0.155-0.807,0.155-1.372v-4.663
		c0-0.591-0.056-1.065-0.165-1.423c-0.11-0.357-0.286-0.615-0.526-0.773c-0.241-0.158-0.575-0.237-1.001-0.237
		c-0.11,0-0.22,0.003-0.331,0.01c-0.11,0.007-0.213,0.018-0.31,0.031v9.367c0.082,0.014,0.176,0.025,0.279,0.031
		C637.832,61.829,637.932,61.833,638.028,61.833z"/>
	<path d="M644.734,65.629V48.917h4.91c1.005,0,1.82,0.186,2.445,0.557c0.626,0.371,1.087,0.911,1.383,1.62
		c0.296,0.708,0.444,1.564,0.444,2.568c0,1.087-0.186,1.964-0.557,2.631c-0.372,0.667-0.891,1.152-1.559,1.454
		c-0.667,0.303-1.454,0.455-2.362,0.455h-1.651v7.427H644.734z M647.787,56.056h1.156c0.55,0,0.98-0.078,1.289-0.237
		c0.31-0.158,0.522-0.413,0.639-0.763c0.117-0.35,0.176-0.822,0.176-1.414c0-0.605-0.045-1.096-0.134-1.475
		c-0.09-0.378-0.282-0.656-0.578-0.835c-0.296-0.179-0.76-0.269-1.393-0.269h-1.156V56.056z"/>
	<path d="M660.145,65.856c-1.183,0-2.124-0.22-2.826-0.66c-0.702-0.441-1.204-1.073-1.506-1.899
		c-0.303-0.825-0.455-1.802-0.455-2.929v-6.252c0-1.127,0.152-2.094,0.455-2.899c0.302-0.804,0.804-1.42,1.506-1.846
		c0.702-0.426,1.643-0.639,2.826-0.639c1.21,0,2.163,0.213,2.858,0.639c0.694,0.427,1.196,1.042,1.506,1.846
		c0.31,0.805,0.465,1.772,0.465,2.899v6.273c0,1.114-0.155,2.081-0.465,2.899c-0.31,0.819-0.812,1.451-1.506,1.898
		C662.308,65.632,661.355,65.856,660.145,65.856z M660.145,63.607c0.509,0,0.883-0.11,1.125-0.33c0.24-0.22,0.402-0.523,0.484-0.908
		c0.083-0.385,0.124-0.804,0.124-1.259v-7.695c0-0.468-0.041-0.887-0.124-1.259c-0.082-0.371-0.244-0.663-0.484-0.877
		c-0.241-0.213-0.615-0.32-1.125-0.32c-0.481,0-0.846,0.106-1.093,0.32c-0.248,0.213-0.413,0.505-0.495,0.877
		c-0.082,0.371-0.124,0.791-0.124,1.259v7.695c0,0.455,0.038,0.874,0.114,1.259c0.075,0.385,0.237,0.688,0.484,0.908
		C659.278,63.497,659.65,63.607,660.145,63.607z"/>
	<path d="M667.262,65.629V48.917h3.034v6.994h3.404v-6.994h3.053v16.712H673.7v-7.551h-3.404v7.551H667.262z"/>
	<path d="M680.983,65.629V51.166h-2.661v-2.248h8.336v2.248h-2.621v14.463H680.983z"/>
	<path d="M688.184,65.629V48.917h7.014v2.145h-3.961v4.808h3.115v2.125h-3.115v5.529h4.002v2.104H688.184z"/>
	<path d="M505.719,91.831c-1.224,0-2.184-0.241-2.878-0.723c-0.695-0.481-1.18-1.138-1.455-1.97
		c-0.275-0.832-0.412-1.791-0.412-2.878v-5.963c0-1.142,0.137-2.131,0.412-2.971c0.275-0.839,0.76-1.485,1.455-1.939
		c0.694-0.455,1.654-0.681,2.878-0.681c1.155,0,2.059,0.196,2.713,0.588c0.653,0.392,1.117,0.953,1.393,1.682
		c0.275,0.73,0.412,1.575,0.412,2.538v1.403h-2.93v-1.444c0-0.468-0.024-0.894-0.072-1.28c-0.049-0.384-0.179-0.691-0.392-0.918
		c-0.213-0.226-0.581-0.339-1.104-0.339s-0.904,0.12-1.145,0.36c-0.241,0.241-0.396,0.565-0.464,0.97
		c-0.069,0.406-0.103,0.864-0.103,1.372v7.262c0,0.606,0.048,1.104,0.144,1.496c0.096,0.392,0.272,0.688,0.526,0.887
		c0.254,0.2,0.602,0.299,1.042,0.299c0.509,0,0.87-0.12,1.083-0.361c0.213-0.24,0.347-0.56,0.403-0.959
		c0.055-0.399,0.082-0.846,0.082-1.341v-1.506h2.93v1.341c0,0.99-0.131,1.867-0.392,2.631c-0.262,0.763-0.719,1.361-1.372,1.795
		C507.819,91.613,506.901,91.831,505.719,91.831z"/>
	<path d="M516.962,91.603v-2.022l4.127-6.375c0.302-0.468,0.588-0.914,0.856-1.341c0.268-0.426,0.488-0.87,0.66-1.331
		c0.172-0.461,0.258-0.966,0.258-1.516c0-0.619-0.11-1.094-0.33-1.423c-0.22-0.331-0.564-0.495-1.032-0.495
		c-0.44,0-0.784,0.124-1.031,0.371s-0.416,0.571-0.506,0.97s-0.134,0.839-0.134,1.32v0.702h-2.806v-0.744
		c0-0.99,0.147-1.859,0.444-2.61c0.295-0.749,0.766-1.337,1.413-1.764c0.646-0.426,1.492-0.639,2.538-0.639
		c1.43,0,2.503,0.385,3.219,1.155c0.715,0.77,1.073,1.843,1.073,3.218c0,0.688-0.096,1.31-0.289,1.867s-0.447,1.09-0.763,1.599
		c-0.317,0.509-0.66,1.031-1.031,1.567l-3.425,5.2h5.076v2.29H516.962z"/>
	<path d="M531.879,91.851c-0.977,0-1.785-0.205-2.425-0.618c-0.639-0.413-1.121-0.984-1.444-1.712
		c-0.324-0.729-0.485-1.568-0.485-2.517v-7.406c0-0.977,0.155-1.833,0.464-2.569c0.31-0.736,0.784-1.31,1.423-1.722
		c0.64-0.413,1.461-0.619,2.466-0.619c1.004,0,1.826,0.206,2.465,0.619c0.64,0.412,1.114,0.987,1.423,1.722
		c0.31,0.736,0.465,1.592,0.465,2.569v7.406c0,0.949-0.162,1.789-0.485,2.517c-0.324,0.729-0.805,1.299-1.444,1.712
		C533.663,91.645,532.855,91.851,531.879,91.851z M531.879,89.396c0.426,0,0.742-0.13,0.949-0.392
		c0.206-0.261,0.344-0.578,0.412-0.949s0.103-0.736,0.103-1.093v-7.325c0-0.385-0.031-0.766-0.093-1.145
		c-0.062-0.378-0.196-0.698-0.403-0.96c-0.206-0.261-0.53-0.392-0.969-0.392c-0.441,0-0.763,0.131-0.97,0.392
		c-0.206,0.262-0.34,0.582-0.403,0.96c-0.062,0.378-0.093,0.759-0.093,1.145v7.325c0,0.357,0.038,0.722,0.114,1.093
		c0.075,0.371,0.216,0.688,0.423,0.949C531.157,89.266,531.466,89.396,531.879,89.396z"/>
	<path d="M540.503,91.603V78.048c-0.082,0.041-0.245,0.103-0.485,0.186c-0.241,0.082-0.505,0.162-0.794,0.237
		c-0.289,0.075-0.554,0.148-0.795,0.216c-0.241,0.069-0.409,0.124-0.505,0.165v-2.124c0.193-0.068,0.433-0.166,0.722-0.289
		c0.289-0.124,0.595-0.265,0.918-0.423c0.323-0.158,0.626-0.334,0.908-0.526c0.282-0.193,0.512-0.392,0.691-0.599h2.187v16.712
		H540.503z"/>
	<path d="M546.321,91.603v-2.022l4.127-6.375c0.302-0.468,0.588-0.914,0.856-1.341c0.268-0.426,0.488-0.87,0.66-1.331
		c0.172-0.461,0.258-0.966,0.258-1.516c0-0.619-0.11-1.094-0.33-1.423c-0.22-0.331-0.564-0.495-1.032-0.495
		c-0.44,0-0.784,0.124-1.031,0.371s-0.416,0.571-0.506,0.97s-0.134,0.839-0.134,1.32v0.702h-2.806v-0.744
		c0-0.99,0.147-1.859,0.444-2.61c0.295-0.749,0.766-1.337,1.413-1.764c0.646-0.426,1.492-0.639,2.538-0.639
		c1.43,0,2.503,0.385,3.219,1.155c0.715,0.77,1.073,1.843,1.073,3.218c0,0.688-0.096,1.31-0.289,1.867s-0.447,1.09-0.763,1.599
		c-0.317,0.509-0.66,1.031-1.031,1.567l-3.425,5.2h5.076v2.29H546.321z"/>
	<path d="M562.042,91.603V74.892h7.077v2.248h-4.044v14.463H562.042z"/>
	<path d="M575.329,91.831c-1.183,0-2.124-0.22-2.826-0.66c-0.702-0.441-1.204-1.073-1.506-1.899
		c-0.303-0.825-0.454-1.802-0.454-2.929V80.09c0-1.127,0.151-2.094,0.454-2.899c0.303-0.804,0.805-1.42,1.506-1.846
		c0.702-0.426,1.643-0.639,2.826-0.639c1.21,0,2.163,0.213,2.858,0.639c0.694,0.427,1.196,1.042,1.506,1.846
		c0.31,0.805,0.465,1.772,0.465,2.899v6.273c0,1.114-0.155,2.081-0.465,2.899c-0.31,0.819-0.812,1.451-1.506,1.898
		C577.492,91.606,576.539,91.831,575.329,91.831z M575.329,89.581c0.509,0,0.883-0.11,1.125-0.33c0.24-0.22,0.402-0.523,0.484-0.908
		c0.083-0.385,0.124-0.804,0.124-1.259V79.39c0-0.468-0.041-0.887-0.124-1.259c-0.082-0.371-0.244-0.663-0.484-0.877
		c-0.241-0.213-0.615-0.32-1.125-0.32c-0.481,0-0.846,0.106-1.093,0.32c-0.248,0.213-0.413,0.505-0.495,0.877
		c-0.082,0.371-0.124,0.791-0.124,1.259v7.695c0,0.455,0.038,0.874,0.114,1.259c0.075,0.385,0.237,0.688,0.484,0.908
		C574.462,89.471,574.835,89.581,575.329,89.581z"/>
	<path d="M581.457,94.925v-5.487h0.598c0.276-0.152,0.54-0.354,0.795-0.609c0.254-0.255,0.484-0.596,0.691-1.021
		c0.206-0.427,0.395-0.973,0.568-1.641c0.172-0.667,0.323-1.481,0.454-2.445c0.13-0.962,0.23-2.103,0.299-3.425l0.371-5.405h7.386
		v14.546h1.754v5.487h-2.125l-0.186-3.321h-8.232l-0.206,3.321H581.457z M584.902,89.437h4.827V77.079h-2.104l-0.186,3.693
		c-0.055,1.321-0.144,2.438-0.268,3.353c-0.124,0.914-0.268,1.671-0.434,2.269c-0.165,0.599-0.347,1.083-0.546,1.454
		c-0.2,0.371-0.41,0.674-0.629,0.908C585.342,88.991,585.122,89.217,584.902,89.437z"/>
	<path d="M595.197,91.603l3.342-16.712h3.26l3.342,16.712h-2.827l-0.66-3.859h-2.909l-0.681,3.859H595.197z M599.055,85.806h2.27
		l-1.136-7.015L599.055,85.806z"/>
</g>
<g>
	<path fill="#FFFFFF" d="M331.68,79.548c-0.04,0.12,0,1.445,0,1.445s2.167-1.244,2.227-1.244s2.889-1.063,3.01-1.083
		c0.12-0.02,3.652-0.843,3.792-0.843c0.14,0,3.792-0.221,3.872-0.241c0.08-0.02,4.474-0.1,4.595-0.1s4.013,0.381,4.013,0.381
		l5.136,0.823l4.976,1.264l4.354,1.445l2.348,1.043l3.09,1.766l2.468,1.545l1.946,1.946l1.685,1.906l1.003,2.307l0.792-0.562
		l0.492-1.625c0,0-0.571-3.17-0.637-3.27c-0.065-0.1-2.774-2.94-2.774-3.055s-4.555-3.1-4.555-3.1l-3.431-1.368l-5.718-2.448
		c0,0-5.678-1.144-5.738-1.184c-0.06-0.04-5.277-0.943-5.277-0.943h-7.905l-4.434,0.522l-3.953,0.803c0,0-2.969,1.465-3.05,1.485
		c-0.08,0.02-1.765,1.348-1.765,1.348L331.68,79.548z"/>
	<path fill="#FFFFFF" d="M395.381,33.877l3.996,6.101l4.263,5.203l3.761,4.326l3.219,2.758c0,0,5.339,3.824,5.495,3.918
		s5.548,2.508,5.548,2.508s5.773,1.844,6.014,1.925c0.241,0.08,8.551,0.144,8.77,0c0.219-0.144,10.299-0.82,10.299-0.82l7.055-3.122
		l5.416-2.093l5.713-3.46l3.059-2.203l5.735-4.182l2.573,8.733l-0.9,7.761l-0.298,8.931l-0.43,2.581l-1.885,5.345l-1.772,3.299
		l-2.993,5.376l-2.413,3.482l-2.902,2.902l-2.413,2.382c0,0-4.612,3.94-4.704,4.032c-0.092,0.092-4.185,2.78-4.246,2.871
		c-0.061,0.092-4.032,2.138-4.032,2.138l-6.581,2.636c0,0-4.654,1.161-4.89,1.241c-0.236,0.08-5.265,0.684-5.265,0.684l-6.296-0.181
		l-5.893-1.135l-5.069-1.419l-5.793-2.351l-4.385-2.074l-3.741-2.615l-3.379-3.259l-2.494-3.057c0,0-3.701-6.879-3.822-6.799
		c-0.121,0.08-1.931-3.42-1.931-3.42l-1.609-4.305l-2.615-7.603l-2.213-7.161c0,0-1.623-9.534-1.677-9.655
		c-0.053-0.121-0.576-4.747-0.576-4.747l-0.201-2.977L382,42.612l3.877-3.237l5.352-2.977L395.381,33.877z"/>
	<path fill="#FFFFFF" d="M392.691,11.942l3.607,2.685l1.443,3.029l0.481,3.864v5.53c0,0-1.563,4.972-1.683,5.071
		c-0.12,0.099-3.552,3.619-3.552,3.619s-3.852,1.745-4.092,1.837c-0.24,0.091-4.657-0.092-4.657-0.092l-4.531-1.619l-3.825-2.467
		l-2.921-4.313l-0.828-4.315l1.001-3.963l1.016-3.153l2.792-2.909l3.166-2.084l2.643-0.978c0,0,3.328-0.745,3.488-0.785
		c0.16-0.04,4.294,0,4.294,0L392.691,11.942z"/>
	<path fill="#FFFFFF" d="M356.305,10.541l6.216,1.778l4.266,3.411c0,0,2.102,3.386,2.441,4.708c0.339,1.322,0.7,4.208,0.259,5.33
		c-0.441,1.122-2.204,4.889-2.204,4.889l-2.204,1.958l-4.485,2.254l-5.012,1.297l-4.811-1.02l-3.887-2.284l-2.164-3.774l-0.802-4
		l0.441-4.168l0.882-3.262l1.603-2.869l1.683-1.643l2.581-1.763l3.069-0.84H356.305z"/>
	<g>
		<path d="M396.327,33.835c0.041,0.081,14.147,28.234,39.854,26.36c25.87-1.886,40.649-19.8,40.693-19.852l0.988-1.175l0.19,1.524
			c0.012,0.092,4.222,32.045-13.379,51.207c-17.275,18.807-34.651,17.787-35.352,17.739c-0.898,0.009-25.223,0.101-36.238-16.218
			c-4.4-6.518-7.666-14.238-9.995-21.551c-3.542-11.127-4.912-21.342-4.792-24.93c0.324-3.185,11.09-9.306,15.503-11.631
			l2.242-2.029L396.327,33.835L396.327,33.835z M436.28,61.532c-24.453,1.783-39.147-23.243-41.322-27.252
			c-2.86,1.259-15.157,7.865-15.319,12.703c-0.117,3.5,1.235,13.515,4.727,24.484c2.292,7.199,5.506,14.795,9.83,21.202
			c10.8,16.001,35.069,15.628,35.139,15.627l0.051,0.001c0.05,0.003,17.133,1.384,34.302-17.307
			c14.972-16.3,13.755-42.204,13.189-48.643C473.07,46.386,458.764,59.893,436.28,61.532L436.28,61.532z"/>
	</g>
	<g>
		<path fill-rule="evenodd" clip-rule="evenodd" fill="#EF4B27" d="M416.134,121.183c-5.29,1.407-12.182,2.893-9.558,3.847
			c2.623,0.954,1.306,2.746,2.995,4.916c1.689,2.17,5.533-0.764,7.39,3.297c1.857,4.062,13.805-14.745,11.122-14.969
			c-2.683-0.223-2.603-9.076-2.603-9.076l-6.728-1.382C421.083,110.753,421.424,119.776,416.134,121.183L416.134,121.183z"/>
	</g>
	<g>
		<path d="M416.305,121.832c-0.742,0.197-1.585,0.414-2.427,0.63c-2.975,0.764-5.937,1.524-6.906,2.001
			c1.727,0.682,1.943,1.666,2.207,2.869c0.147,0.668,0.313,1.425,0.92,2.205c0.512,0.658,1.453,0.664,2.454,0.67
			c1.807,0.011,3.768,0.023,5.018,2.759c0.09,0.198,0.304,0.202,0.597,0.068c1.484-0.678,3.828-3.522,5.844-6.551
			c2.02-3.035,3.676-6.2,3.786-7.525c0.002-0.02,0.387,0,0.23-0.013c-2.83-0.235-3.173-7.176-3.213-9.198l-4.733-0.972
			c0.199,0.45,0.37,0.945,0.51,1.471c0.453,1.704,0.59,3.767,0.274,5.673c-0.325,1.961-1.133,3.775-2.571,4.917
			C417.726,121.287,417.065,121.63,416.305,121.832L416.305,121.832z M413.546,121.162c0.795-0.204,1.59-0.408,2.416-0.628
			c0.579-0.154,1.077-0.412,1.502-0.749c1.145-0.91,1.8-2.424,2.076-4.086c0.285-1.718,0.161-3.577-0.247-5.112
			c-0.259-0.972-0.626-1.799-1.067-2.355l-1.146-1.442l1.805,0.371l6.728,1.382l0.538,0.11l-0.003,0.547
			c0,0.023-0.068,8.236,1.988,8.407c0.767,0.064,1.07,0.59,0.998,1.46c-0.128,1.541-1.879,4.96-4.007,8.157
			c-2.132,3.204-4.679,6.244-6.402,7.031c-1.057,0.483-1.895,0.322-2.377-0.732c-0.895-1.959-2.409-1.968-3.804-1.976
			c-1.336-0.008-2.59-0.016-3.503-1.189c-0.794-1.02-0.995-1.934-1.172-2.74c-0.184-0.84-0.335-1.523-1.525-1.956
			c-0.904-0.329-1.181-0.812-0.961-1.416C405.781,123.156,409.653,122.161,413.546,121.162L413.546,121.162z M406.67,124.666
			c-0.01,0.013-0.018,0.026-0.022,0.038C406.615,124.793,406.634,124.746,406.67,124.666L406.67,124.666z"/>
	</g>
	<g>
		<path fill-rule="evenodd" clip-rule="evenodd" fill="#EF4B27" d="M439.938,107.487c0,0,4.107,4.974,3.238,8.444
			c-0.87,3.47-13.052,10.349-12.811,12.83c0.24,2.481,2.136-1.733,4.664,1.743c2.528,3.476,7.298-1.276,9.6,1.501
			c2.301,2.777,8.388-14.897,5.869-15.31c-2.519-0.413-3.41-11.727-3.41-11.727L439.938,107.487L439.938,107.487z"/>
	</g>
	<g>
		<path d="M441.028,107.813c1.14,1.58,3.533,5.35,2.799,8.28c-0.495,1.977-3.914,4.673-7.155,7.229
			c-2.94,2.319-5.723,4.512-5.639,5.374c0.015,0.159-0.317,0.237-0.187,0.225c0.066-0.006,0.225-0.073,0.407-0.149
			c1.038-0.434,2.565-1.072,4.318,1.338c1.069,1.469,2.798,1.073,4.47,0.691c1.904-0.436,3.75-0.858,5.105,0.777
			c0.055,0.066,0.178,0.013,0.344-0.125c0.839-0.695,1.862-2.62,2.765-4.86c0.922-2.289,1.696-4.877,2.017-6.835
			c0.228-1.393,0.308-2.37,0.12-2.4c-2.544-0.417-3.608-8.74-3.89-11.473L441.028,107.813L441.028,107.813z M442.525,115.769
			c0.787-3.14-3.097-7.846-3.108-7.859l-0.601-0.737l0.901-0.317l7.15-2.52l0.819-0.289l0.07,0.866
			c0.003,0.031,0.854,10.792,2.85,11.12c1.124,0.184,1.348,1.765,0.991,3.938c-0.336,2.049-1.142,4.745-2.099,7.122
			c-0.977,2.426-2.134,4.55-3.153,5.394c-0.812,0.673-1.578,0.735-2.233-0.055c-0.828-1-2.278-0.668-3.775-0.325
			c-2.095,0.479-4.261,0.975-5.849-1.208c-1.128-1.551-2.073-1.156-2.716-0.887c-0.281,0.117-0.525,0.22-0.794,0.246
			c-0.714,0.069-1.164-0.234-1.28-1.431c-0.154-1.593,2.908-4.007,6.144-6.559C438.907,119.849,442.142,117.298,442.525,115.769
			L442.525,115.769z"/>
	</g>
	<g>
		<path d="M359.998,59.324c2.815,0.326,5.257,0.855,7.374,1.539c1.832,0.592,3.421,1.298,4.798,2.088
			c-0.639-4.378,0.951-9.133,3.633-13.455c3.242-5.225,7.041-8.906,11.456-11.434c0.788-0.981-0.731-0.227-0.886-0.199
			c-2.356,0.427-5.276-0.402-8.377-2.373c-2.272-1.444-5.244-3.84-5.843-7.145c-0.696-3.838,0.37-8.522,2.523-11.482
			c2.195-3.017,6.239-5.743,10.145-6.452c1.557-0.283,0.818,0.236,1.948-0.16c-1.443-2.626-2.977-4.786-4.715-6.325
			c-1.809-1.602-3.847-2.523-6.249-2.582c-3.284-0.08-7.032,1.003-10.334,2.713c-2.979,1.544-6.423,4.015-7.546,6.333
			c2.668,0.455,5.169,1.643,7.314,3.476c2.175,1.858,4.024,3.783,4.584,6.873c0.563,3.106-0.023,6.618-1.955,9.406
			c-2.188,3.159-5.609,5.054-8.327,5.548c-2.471,0.448-4.101,0.584-5.39,0.392c-0.818-0.122-1.43-0.005-2.117-0.301
			c3.25,14.42,1.893,17.25-0.141,21.486c-0.254,0.529-0.519,1.081-0.784,1.675c1.09-0.097,2.259-0.113,3.495-0.07
			C356.265,58.933,358.078,59.102,359.998,59.324L359.998,59.324z M366.964,62.137c-2.039-0.659-4.396-1.169-7.119-1.484
			c-1.858-0.215-3.628-0.378-5.284-0.437c-1.625-0.057-3.11-0.011-4.415,0.192l-1.163,0.181l0.438-1.092
			c0.435-1.084,0.863-1.975,1.263-2.809c1.935-4.031,3.22-6.707-0.063-21.085c-0.03-0.101-0.072-0.246-0.125-0.433
			c-0.056-0.198-0.604-0.091-0.628-0.185l-0.411-0.791l1.319,0.657c1.115,0.556,2.571,0.588,3.681,0.754
			c1.139,0.17,2.551,0.013,4.869-0.408c2.381-0.432,5.992-2.276,7.991-5.162c1.749-2.524,2.44-6.337,1.946-9.059
			c-0.502-2.766-2.269-5.404-4.221-7.071c-2.22-1.896-5.142-2.653-7.897-2.919l-1.04-0.1l0.522-0.902
			c1.552-2.682,4.641-5.258,8.228-7.117c3.486-1.806,7.465-2.949,10.979-2.863c2.75,0.067,5.067,1.109,7.11,2.917
			c1.989,1.76,3.71,4.252,5.318,7.279l0.079,0.148c-1.865,1.895-2.932,0.656-3.557,0.77c-3.561,0.646-7.728,3.409-9.726,6.155
			c-2.283,2.461-3.037,7.247-2.409,10.706c0.523,2.883,3.492,6.031,5.474,7.291c2.796,1.777,6.183,2.564,8.288,2.182
			c2.063,0.191,2.201,0.105,3.063,0.505c-4.292,2.407-9.367,7.139-12.534,12.244c-2.613,4.21-4.132,8.816-3.38,12.954
			c0.06,0.332,0.001,0.625-0.167,0.879l-0.001-0.001c-0.149,0.225-0.369,0.393-0.654,0.509l-0.316,0.129l-0.291-0.182
			C370.69,63.589,368.982,62.789,366.964,62.137L366.964,62.137z"/>
	</g>
	<g>
		<path d="M353.072,10.139c3.658-0.664,7.687,0.242,10.915,2.241c3.092,1.915,5.463,4.836,6.101,8.354
			c0.664,3.659,0.097,6.951-1.762,9.634c-1.765,2.547-4.686,4.52-8.815,5.706c-1.198,0.344-2.366,0.544-3.49,0.613
			c-2.972,0.181-5.664-0.549-7.804-1.978c-2.152-1.437-3.742-3.577-4.497-6.207c-0.248-0.863-0.405-1.773-0.463-2.723
			c-0.245-4.028,0.465-7.724,2.209-10.537C347.097,12.615,349.611,10.767,353.072,10.139L353.072,10.139z M363.283,13.521
			c-2.959-1.833-6.64-2.665-9.971-2.06c-3.06,0.555-5.277,2.179-6.708,4.487c-1.591,2.565-2.235,5.986-2.006,9.748
			c0.052,0.861,0.192,1.676,0.411,2.44c0.665,2.314,2.062,4.196,3.951,5.457c1.902,1.27,4.308,1.917,6.979,1.755
			c1.037-0.063,2.111-0.247,3.206-0.561c3.81-1.094,6.485-2.885,8.077-5.183c1.647-2.378,2.143-5.327,1.544-8.629
			C368.201,17.855,366.068,15.247,363.283,13.521L363.283,13.521z"/>
	</g>
	<g>
		<path d="M355.376,13.645c2.197-0.399,4.731,0.297,6.852,1.766c1.984,1.375,3.623,3.434,4.298,5.911
			c0.088,0.321,0.153,0.653,0.198,0.991c0.297,2.264-0.46,4.509-1.787,6.318c-1.32,1.799-3.213,3.178-5.196,3.719
			c-0.312,0.085-0.636,0.15-0.968,0.194c-2.345,0.308-4.852-0.4-6.913-1.828c-1.979-1.371-3.56-3.411-4.206-5.858
			c-0.047-0.18-0.087-0.356-0.118-0.528c-0.43-2.367,0.419-4.76,1.87-6.686c1.434-1.903,3.474-3.362,5.448-3.883
			C355.032,13.714,355.206,13.675,355.376,13.645L355.376,13.645z M361.462,16.515c-1.839-1.274-4.002-1.884-5.847-1.549
			c-0.143,0.026-0.283,0.057-0.42,0.093c-1.693,0.448-3.461,1.723-4.721,3.394c-1.243,1.649-1.975,3.672-1.618,5.637
			c0.027,0.146,0.058,0.288,0.094,0.426c0.561,2.12,1.941,3.896,3.673,5.096c1.799,1.247,3.965,1.868,5.971,1.605
			c0.256-0.034,0.521-0.088,0.792-0.162c1.695-0.462,3.322-1.654,4.466-3.213c1.138-1.551,1.79-3.455,1.541-5.35
			c-0.035-0.264-0.09-0.536-0.166-0.816C364.642,19.521,363.205,17.723,361.462,16.515L361.462,16.515z"/>
	</g>
	<g>
		<path d="M384.498,10.377c0.783-0.142,1.566-0.232,2.343-0.27c2.947-0.142,5.646,0.519,7.774,2.072
			c2.133,1.557,3.674,3.995,4.292,7.399l0.003,0c0.136,0.752,0.227,1.563,0.269,2.435c0.225,4.658-0.764,8.511-2.689,11.29
			c-1.994,2.878-4.975,4.602-8.648,4.886c-3.736,0.288-7.597-0.717-10.629-2.817c-2.799-1.939-4.897-4.807-5.558-8.452
			c-0.674-3.715,0.562-7.414,2.883-10.387C376.973,13.411,380.617,11.081,384.498,10.377L384.498,10.377z M386.907,11.444
			c-0.697,0.034-1.422,0.119-2.17,0.255c-3.557,0.645-7.22,2.619-9.461,5.491c-2.098,2.688-2.901,6.178-2.3,9.489
			c0.593,3.266,2.481,5.841,5.001,7.587c2.783,1.928,6.328,2.85,9.76,2.586c3.251-0.251,5.887-1.774,7.648-4.315
			c1.763-2.544,2.665-6.111,2.456-10.458c-0.038-0.791-0.124-1.545-0.254-2.262l0.003,0c-0.551-3.038-1.902-5.196-3.766-6.556
			C391.955,11.896,389.551,11.317,386.907,11.444L386.907,11.444z"/>
	</g>
	<g>
		<path d="M383.634,14.4c2.314-0.275,5.063,0.369,7.368,1.966c1.963,1.36,3.613,3.411,4.411,6.172
			c0.239,0.828,0.38,1.642,0.426,2.43c0.126,2.129-0.415,4.096-1.51,5.685c-1.095,1.592-2.739,2.796-4.814,3.395
			c-0.74,0.214-1.53,0.35-2.364,0.4c-3.232,0.192-6.082-0.461-8.174-1.91c-2.028-1.405-3.335-3.539-3.588-6.356
			c-0.248-2.757,0.649-5.474,2.12-7.597C379.099,16.292,381.376,14.669,383.634,14.4L383.634,14.4z M390.237,17.471
			c-2.032-1.408-4.434-1.979-6.442-1.74c-1.873,0.223-3.801,1.627-5.182,3.619c-1.31,1.89-2.11,4.292-1.892,6.708
			c0.215,2.391,1.316,4.195,3.021,5.376c1.842,1.276,4.397,1.849,7.326,1.675c0.742-0.044,1.435-0.163,2.074-0.347
			c1.767-0.51,3.16-1.528,4.083-2.868c0.924-1.343,1.382-3.018,1.273-4.843c-0.042-0.699-0.164-1.416-0.374-2.141
			C393.423,20.477,391.968,18.67,390.237,17.471L390.237,17.471z"/>
	</g>
	<g>
		<path fill-rule="evenodd" clip-rule="evenodd" fill="#00ADEE" d="M393.489,19.884c0.537,0.837,0.975,1.783,1.281,2.84
			c0.566,1.96,0.54,3.848,0.014,5.493c-0.774,0.821-1.782,1.441-2.929,1.688c-2.791,0.601-5.631-2.2-5.945-4.54
			c-0.314-2.341,1.679-5.305,4.54-5.945C391.506,19.184,392.564,19.396,393.489,19.884L393.489,19.884z"/>
	</g>
	<g>
		<path d="M394.053,19.523c0.292,0.455,0.556,0.938,0.786,1.45c0.222,0.492,0.415,1.014,0.574,1.565
			c0.296,1.025,0.44,2.036,0.442,3.009l0.003,0c0.003,1.002-0.148,1.968-0.437,2.874l-0.047,0.146l-0.104,0.11
			c-0.442,0.468-0.951,0.878-1.513,1.201c-0.537,0.309-1.129,0.544-1.763,0.68c-0.114,0.024-0.226,0.044-0.334,0.059
			c-1.496,0.2-2.962-0.394-4.115-1.349c-1.132-0.939-1.974-2.243-2.241-3.482c-0.024-0.113-0.044-0.224-0.058-0.331
			c-0.186-1.385,0.316-2.94,1.285-4.209c0.903-1.182,2.221-2.133,3.773-2.481c0.598-0.134,1.191-0.145,1.764-0.058
			c0.606,0.092,1.192,0.295,1.735,0.583l0.153,0.081L394.053,19.523L394.053,19.523z M393.616,21.52
			c-0.178-0.395-0.377-0.769-0.593-1.121c-0.368-0.177-0.757-0.303-1.157-0.364c-0.419-0.064-0.848-0.057-1.271,0.038
			c-1.223,0.273-2.271,1.036-2.998,1.988c-0.762,0.998-1.161,2.186-1.024,3.212c0.011,0.079,0.024,0.157,0.041,0.233
			c0.206,0.956,0.877,1.98,1.785,2.733c0.888,0.736,1.991,1.198,3.079,1.052c0.082-0.011,0.16-0.024,0.236-0.041
			c0.485-0.104,0.946-0.289,1.373-0.535c0.407-0.235,0.778-0.524,1.105-0.852c0.214-0.721,0.325-1.498,0.323-2.313l0.003,0
			c-0.002-0.847-0.129-1.734-0.391-2.64C393.985,22.424,393.814,21.96,393.616,21.52L393.616,21.52z"/>
	</g>
	<g>
		<path d="M358.221,77.827c1.624,0.328,3.186,0.71,4.673,1.139c5.576,1.606,10.253,3.887,13.416,6.409
			c3.297,2.628,4.987,5.554,4.427,8.326c-0.03,0.151-0.065,0.292-0.102,0.423c-0.905,3.142-4.637,5.347-9.938,6.372
			c-5.129,0.992-11.783,0.903-18.746-0.503c-1.625-0.328-3.186-0.71-4.673-1.139c-5.576-1.606-10.253-3.887-13.416-6.409
			c-3.297-2.628-4.987-5.554-4.427-8.326c0.03-0.151,0.065-0.292,0.102-0.423c0.905-3.142,4.637-5.347,9.938-6.372
			C344.605,76.332,351.259,76.422,358.221,77.827L358.221,77.827z M362.525,80.254c-1.471-0.424-2.998-0.798-4.567-1.115
			c-6.79-1.371-13.261-1.462-18.233-0.5c-4.8,0.929-8.146,2.811-8.899,5.427c-0.033,0.115-0.059,0.221-0.079,0.318
			c-0.451,2.235,1.053,4.707,3.949,7.015c3.03,2.415,7.544,4.61,12.951,6.168c1.471,0.424,2.998,0.798,4.567,1.115
			c6.79,1.371,13.261,1.462,18.233,0.5c4.8-0.929,8.146-2.811,8.899-5.427c0.033-0.115,0.059-0.221,0.079-0.318
			c0.451-2.235-1.053-4.707-3.949-7.015C372.446,84.007,367.932,81.812,362.525,80.254L362.525,80.254z"/>
	</g>
	<g>
		<path d="M349.307,60.809c-4.233,0.889-7.152,2.974-9.099,5.361c-2.579,3.163-3.463,6.822-3.437,8.931
			c1.522-0.585,3.313-0.975,5.303-1.2c2.562-0.29,5.468-0.309,8.561-0.123c0.472,0.028,0.691,0.04,0.914,0.053
			c2.417,0.134,3.735,0.207,8.772,1.383c3.142,0.734,7.383,2.079,11.179,3.727c3.039,1.319,5.808,2.84,7.538,4.411l0.06,0.043
			c0.691-3.041,2.156-12.899-6.17-18.458c-1.468-0.98-3.232-1.861-5.346-2.594c-1.964-0.68-4.224-1.231-6.819-1.611
			c-1.803-0.264-3.477-0.408-5.029-0.447c-1.628-0.041-3.121,0.033-4.488,0.203c-0.352,0.044-0.679,0.091-0.982,0.141
			C349.94,60.684,349.621,60.744,349.307,60.809L349.307,60.809z M339.17,65.324c2.118-2.597,5.284-4.863,9.863-5.825
			c0.325-0.068,0.661-0.131,1.008-0.189c0.355-0.059,0.702-0.11,1.039-0.151c1.431-0.179,2.991-0.256,4.689-0.213
			c1.6,0.04,3.327,0.189,5.186,0.461c2.693,0.394,5.033,0.964,7.065,1.668c2.225,0.771,4.09,1.704,5.651,2.746
			c10.751,7.178,6.484,20.841,6.472,20.88l-0.271,0.896l-0.758-0.543l-0.887-0.636l-0.036-0.026l-0.027-0.024
			c-1.612-1.474-4.265-2.926-7.197-4.199c-3.724-1.617-7.876-2.935-10.947-3.652c-4.922-1.149-6.2-1.22-8.542-1.35
			c-0.351-0.019-0.737-0.041-0.919-0.052c-3.014-0.181-5.843-0.163-8.333,0.119c-2.245,0.254-4.204,0.723-5.758,1.453l-0.789,0.37
			l-0.156-0.858C335.148,74.135,335.915,69.316,339.17,65.324L339.17,65.324z"/>
	</g>
	<g>
		<path d="M330.525,82.264c0.002-0.286,0.024-0.576,0.067-0.868c0.042-0.29,0.105-0.578,0.187-0.863
			c0.905-3.142,4.637-5.347,9.938-6.372c5.129-0.992,11.783-0.903,18.746,0.503c1.625,0.328,3.186,0.71,4.673,1.139
			c5.576,1.606,10.253,3.887,13.416,6.409c3.297,2.628,4.987,5.554,4.427,8.326c-0.03,0.151-0.065,0.292-0.102,0.423
			c-0.125,0.433-0.286,0.843-0.483,1.23c-0.201,0.397-0.439,0.773-0.71,1.128l-1.065-0.815c0.221-0.289,0.415-0.595,0.578-0.917
			c0.161-0.318,0.293-0.65,0.392-0.995c0.033-0.115,0.059-0.221,0.079-0.318c0.451-2.235-1.053-4.707-3.949-7.015
			c-3.03-2.415-7.544-4.61-12.951-6.168c-1.471-0.424-2.998-0.798-4.567-1.115c-6.79-1.371-13.261-1.462-18.233-0.5
			c-4.8,0.929-8.146,2.811-8.899,5.427c-0.067,0.233-0.117,0.462-0.15,0.686c-0.033,0.228-0.05,0.456-0.052,0.684L330.525,82.264
			L330.525,82.264z"/>
	</g>
	<g>
		<path d="M363.266,86.065c3.068,0.514,4.876,1.486,5.589,2.567c0.597,0.905,0.521,1.854-0.153,2.716
			c-0.563,0.721-1.585,1.364-2.999,1.82c-4.113,1.328-11.9,1.168-21.602-3.392l0.569-1.213c9.348,4.394,16.753,4.579,20.625,3.33
			c1.146-0.37,1.944-0.853,2.349-1.372c0.295-0.377,0.336-0.78,0.09-1.153c-0.524-0.794-2.027-1.537-4.689-1.983L363.266,86.065
			L363.266,86.065z"/>
	</g>
	<g>
		<path d="M415.791,83.482c0.423,2.214,1.209,4.15,2.284,5.816c2.259,3.502,5.807,5.822,9.968,7.045
			c4.208,1.237,9.04,1.355,13.808,0.443c4.188-0.801,8.323-2.399,11.941-4.733c6.924-4.466,12.543-10.009,16.199-16.534
			c3.372-6.02,5.078-12.889,4.599-20.535c-0.288-4.593-1.147-7.637-1.616-9.005c-1.246,0.976-4.168,3.19-9.374,6.738
			c-3.671,2.502-6.939,4.333-10.6,5.718c-3.656,1.383-7.688,2.315-12.889,3.02c-8.755,1.187-13.507-0.155-14.85-0.635
			c-3.382,2.845-6.26,5.723-8.038,9.217C415.405,73.61,414.718,77.872,415.791,83.482L415.791,83.482z M416.949,90.025
			c-1.164-1.804-2.014-3.899-2.472-6.294c-1.135-5.933-0.393-10.471,1.555-14.3c1.936-3.805,5.044-6.867,8.675-9.894l0.323-0.269
			l0.382,0.173c0.013,0.006,4.411,2.056,14.518,0.687c5.1-0.691,9.042-1.6,12.598-2.946c3.551-1.343,6.734-3.128,10.317-5.571
			c7.225-4.925,9.993-7.238,10.001-7.245l0.686-0.573l0.358,0.818c0.004,0.011,1.621,3.613,2.038,10.284
			c0.496,7.917-1.273,15.033-4.769,21.275c-3.769,6.729-9.541,12.43-16.64,17.009c-3.761,2.426-8.062,4.087-12.419,4.92
			c-4.97,0.951-10.019,0.823-14.432-0.474C423.207,96.316,419.392,93.813,416.949,90.025L416.949,90.025z"/>
	</g>
	<g>
		<path fill-rule="evenodd" clip-rule="evenodd" fill="#00ADEE" d="M357.083,23.707c-0.32-2.385,2.995-4.66,4.807-5.065
			c1.812-0.405,1.531-0.365,2.201-0.179c0.827,1.068,1.057,1.112,1.541,2.89s0.131,4.475-0.967,6.403
			c-0.471,0.262-0.982,0.461-1.524,0.578C360.298,28.947,357.403,26.092,357.083,23.707L357.083,23.707z"/>
	</g>
	<g>
		<path d="M356.42,23.798c-0.169-1.263,0.452-2.459,1.383-3.439c1.147-1.208,2.807-2.116,3.942-2.37l0.321-0.072
			c0.696-0.156,1.03-0.231,1.286-0.252c0.317-0.026,0.46,0.017,0.733,0.1c0.03,0.009,0.062,0.019,0.185,0.053l0.217,0.06
			l0.135,0.175c0.154,0.199,0.263,0.334,0.36,0.454c0.605,0.746,0.858,1.058,1.298,2.671c0.27,0.992,0.305,2.231,0.117,3.479
			c-0.181,1.196-0.568,2.412-1.149,3.433l-0.093,0.163l-0.165,0.092c-0.263,0.146-0.542,0.276-0.835,0.388
			c-0.281,0.106-0.573,0.193-0.874,0.258c-0.116,0.025-0.229,0.045-0.339,0.059c-1.521,0.204-3.012-0.401-4.184-1.373
			c-1.152-0.955-2.009-2.281-2.28-3.542C356.454,24.019,356.434,23.907,356.42,23.798L356.42,23.798z M358.776,21.281
			c-0.677,0.714-1.136,1.538-1.029,2.335c0.011,0.081,0.025,0.161,0.041,0.238c0.21,0.977,0.896,2.023,1.824,2.792
			c0.908,0.752,2.035,1.224,3.148,1.075c0.083-0.011,0.164-0.025,0.241-0.042c0.233-0.05,0.46-0.118,0.682-0.202
			c0.166-0.063,0.33-0.136,0.491-0.219c0.448-0.84,0.749-1.825,0.897-2.8c0.161-1.068,0.136-2.113-0.086-2.929
			c-0.367-1.344-0.567-1.591-1.043-2.179c-0.079-0.097-0.164-0.202-0.248-0.307c-0.108-0.033-0.166-0.05-0.233-0.044
			c-0.163,0.013-0.468,0.082-1.104,0.224l-0.322,0.072C361.113,19.502,359.744,20.261,358.776,21.281L358.776,21.281z"/>
	</g>
	<g>
		<polygon fill-rule="evenodd" clip-rule="evenodd" points="477.385,42.185 477.909,48.418 476.892,63.691 475.747,68.887 
			470.773,76.18 474.052,68.215 475.219,61.441 475.032,54.839 474.679,49.338 474.164,46.631 473.313,45.025 477.385,42.185 		"/>
	</g>
	<g>
		<path d="M477.569,42.17l0.525,6.234l0.001,0.012l-0.001,0.014l-1.017,15.273l-0.001,0.012l-0.003,0.015l-1.145,5.197l-0.008,0.036
			l-0.02,0.029l-4.974,7.292l-0.996,1.46l0.672-1.634l3.272-7.946l1.16-6.739l-0.186-6.575h0l-0.352-5.49l-0.508-2.667l-0.838-1.582
			l-0.076-0.144l0.134-0.094l4.072-2.841l0.262-0.183L477.569,42.17L477.569,42.17z M477.724,48.421l-0.497-5.902l-3.675,2.564
			l0.774,1.462l0.013,0.024l0.005,0.028l0.515,2.707l0.002,0.012l0.001,0.011l0.353,5.501l0,0.007l0.187,6.601l0.001,0.021
			l-0.003,0.015l-1.167,6.774l-0.003,0.02l-0.008,0.019l-2.607,6.331l3.959-5.804l1.134-5.146L477.724,48.421L477.724,48.421z"/>
	</g>
	<g>
		<path fill-rule="evenodd" clip-rule="evenodd" fill="#C4C3C3" d="M375.804,49.496c3.171-5.109,6.873-8.742,11.163-11.264
			c-3.458,0.082-6.959-0.924-9.754-2.861c-2.799-1.939-4.897-4.807-5.558-8.452c-0.674-3.715,0.561-7.414,2.883-10.387
			c2.436-3.12,6.079-5.45,9.96-6.154c0.734-0.133,1.468-0.221,2.197-0.262c-1.421-2.565-2.932-4.677-4.64-6.19
			c-1.809-1.601-3.848-2.523-6.249-2.582c-3.284-0.08-7.032,1.002-10.334,2.713c-2.872,1.488-6.177,3.839-7.417,6.084
			c2.091,0.353,4.136,1.127,5.933,2.24c3.092,1.915,5.463,4.836,6.101,8.354c0.664,3.659,0.097,6.951-1.762,9.634
			c-1.765,2.547-4.686,4.52-8.815,5.706c-1.198,0.344-2.366,0.544-3.49,0.613c-1.351,0.082-2.643-0.024-3.852-0.298
			c3.076,13.894,1.729,16.703-0.277,20.879c-0.254,0.529-0.519,1.081-0.784,1.675c1.09-0.097,2.26-0.113,3.496-0.07
			c0.514,0.018,1.042,0.047,1.584,0.084c1.481,0.054,3.068,0.199,4.766,0.448c2.693,0.394,5.033,0.964,7.065,1.668
			c1.55,0.537,2.925,1.153,4.145,1.829C371.543,58.54,373.131,53.803,375.804,49.496L375.804,49.496z"/>
	</g>
	<g>
		<path fill-rule="evenodd" clip-rule="evenodd" fill="#C4C3C3" d="M366.964,62.137c-2.039-0.659-4.397-1.169-7.119-1.484
			c-1.303-0.151-2.561-0.276-3.768-0.358h-0.002c-0.115-0.004-0.228-0.008-0.341-0.01c-1.628-0.041-3.121,0.033-4.488,0.204
			c-0.352,0.044-0.68,0.091-0.982,0.141c-0.324,0.054-0.643,0.114-0.956,0.18c-4.233,0.889-7.152,2.974-9.099,5.361
			c-2.579,3.163-3.463,6.823-3.437,8.932c1.522-0.585,3.313-0.975,5.303-1.2c0.249-0.028,0.501-0.054,0.755-0.077l0.002,0
			c4.782-0.609,10.59-0.38,16.63,0.84c1.625,0.328,3.186,0.71,4.673,1.139c5.401,1.555,9.958,3.744,13.113,6.171
			c0.674,0.453,1.277,0.913,1.789,1.379l0.061,0.043c0.69-3.041,2.156-12.899-6.17-18.458c-0.146-0.098-0.295-0.194-0.448-0.29
			l-0.059,0.024l-0.291-0.182c-1.292-0.807-2.797-1.533-4.548-2.146C367.379,62.273,367.173,62.204,366.964,62.137L366.964,62.137z"
			/>
	</g>
	<g>
		<path fill-rule="evenodd" clip-rule="evenodd" fill="#C4C3C3" d="M357.958,79.139c-6.79-1.371-13.261-1.461-18.233-0.5
			c-3.594,0.695-6.373,1.926-7.859,3.598c0,0.012,0,0.023,0,0.035l-0.03,0c-0.482,0.551-0.824,1.151-1.01,1.794
			c-0.033,0.114-0.06,0.22-0.079,0.317c-0.451,2.235,1.053,4.706,3.949,7.015c3.03,2.415,7.544,4.61,12.951,6.168
			c1.471,0.424,2.998,0.798,4.567,1.115c6.789,1.371,13.261,1.461,18.232,0.5c4.8-0.928,8.146-2.811,8.9-5.426
			c0.033-0.115,0.059-0.221,0.079-0.318c0.451-2.234-1.053-4.706-3.949-7.015c-3.03-2.416-7.544-4.611-12.951-6.168
			C361.054,79.831,359.527,79.456,357.958,79.139L357.958,79.139z M367.735,89.368c-0.524-0.794-2.027-1.537-4.688-1.984l0.219-1.32
			c3.068,0.514,4.876,1.486,5.589,2.567c0.598,0.905,0.521,1.854-0.153,2.717c-0.563,0.72-1.585,1.364-2.999,1.82
			c-4.113,1.328-11.899,1.168-21.602-3.392l0.569-1.213c9.348,4.394,16.753,4.579,20.625,3.33c1.146-0.37,1.944-0.853,2.349-1.372
			C367.94,90.144,367.981,89.741,367.735,89.368L367.735,89.368z"/>
	</g>
	<g>
		<path fill-rule="evenodd" clip-rule="evenodd" fill="#C4C3C3" d="M417.224,70.036c-1.818,3.574-2.505,7.836-1.432,13.446
			c0.424,2.214,1.209,4.15,2.284,5.816c2.259,3.502,5.808,5.822,9.968,7.044c4.208,1.237,9.04,1.355,13.808,0.443
			c4.188-0.801,8.323-2.398,11.941-4.732c6.924-4.466,12.543-10.009,16.199-16.535c3.372-6.02,5.078-12.889,4.599-20.535
			c-0.283-4.52-1.12-7.539-1.594-8.938c-2.588,2.246-6.172,4.978-10.677,7.527c-3.165,2.071-6.09,3.64-9.32,4.862
			c-3.656,1.383-7.688,2.315-12.889,3.02c-8.755,1.186-13.507-0.155-14.85-0.636C421.879,63.665,419.001,66.542,417.224,70.036
			L417.224,70.036z"/>
	</g>
</g>
</svg>
