<?xml version="1.0" encoding="utf-8"?>
<!-- Generator: Adobe Illustrator 17.0.0, SVG Export Plug-In . SVG Version: 6.00 Build 0)  -->
<!DOCTYPE svg PUBLIC "-//W3C//DTD SVG 1.1//EN" "http://www.w3.org/Graphics/SVG/1.1/DTD/svg11.dtd" [
	<!ENTITY ns_extend "http://ns.adobe.com/Extensibility/1.0/">
	<!ENTITY ns_ai "http://ns.adobe.com/AdobeIllustrator/10.0/">
	<!ENTITY ns_graphs "http://ns.adobe.com/Graphs/1.0/">
	<!ENTITY ns_vars "http://ns.adobe.com/Variables/1.0/">
	<!ENTITY ns_imrep "http://ns.adobe.com/ImageReplacement/1.0/">
	<!ENTITY ns_sfw "http://ns.adobe.com/SaveForWeb/1.0/">
	<!ENTITY ns_custom "http://ns.adobe.com/GenericCustomNamespace/1.0/">
	<!ENTITY ns_adobe_xpath "http://ns.adobe.com/XPath/1.0/">
]>
<svg version="1.1" id="Layer_1" xmlns:x="&ns_extend;" xmlns:i="&ns_ai;" xmlns:graph="&ns_graphs;"
	 xmlns="http://www.w3.org/2000/svg" xmlns:xlink="http://www.w3.org/1999/xlink" x="0px" y="0px" width="467.328px"
	 height="467.332px" viewBox="186.25 55.794 467.328 467.332" enable-background="new 186.25 55.794 467.328 467.332"
	 xml:space="preserve">
<metadata>
	<sfw  xmlns="&ns_sfw;">
		<slices></slices>
		<sliceSourceBounds  width="467.328" height="467.332" x="185.805" y="72.014" bottomLeftOrigin="true"></sliceSourceBounds>
	</sfw>
</metadata>
<title></title>
<g id="_1">
	<path fill="#FFFFFF" d="M462.196,523.126c-6.671-0.004-12.755-3.814-15.673-9.813l-81.967-168.504l-168.504-81.956
		c-8.658-4.22-12.255-14.66-8.035-23.318c1.898-3.893,5.177-6.941,9.198-8.55L629.619,57.063c8.933-3.601,19.094,0.722,22.695,9.656
		c1.686,4.183,1.686,8.856,0,13.039L478.38,512.197c-2.576,6.401-8.684,10.68-15.58,10.917L462.196,523.126z M246.663,248.739
		l138.565,67.434c3.512,1.708,6.349,4.545,8.057,8.057l67.434,138.565l143.925-358.156L246.663,248.739z"/>
	<path fill="#FFFFFF" d="M377.601,349.204c-9.632-0.002-17.438-7.812-17.436-17.444c0.001-4.626,1.84-9.062,5.112-12.332
		L623.794,60.912c6.813-6.81,17.856-6.807,24.666,0.006s6.807,17.856-0.006,24.666l0,0L389.937,344.146
		C386.657,347.399,382.221,349.218,377.601,349.204z"/>
</g>
</svg>
